<?xml version="1.0"?>
<!-- Generated by SVGo -->
<svg width="377.664mm" height="173.827mm"
     viewBox="0.000 0.000 377.664 173.827"
     xmlns="http://www.w3.org/2000/svg" 
     xmlns:xlink="http://www.w3.org/1999/xlink">
<polygon points="367.664,5.001 368.056,5.016 368.446,5.062 368.831,5.139 369.209,5.245 369.577,5.381 369.934,5.545 370.276,5.737 370.603,5.955 370.911,6.198 371.200,6.465 371.466,6.753 371.709,7.062 371.927,7.388 372.119,7.731 372.283,8.087 372.419,8.455 372.526,8.833 372.602,9.218 372.649,9.608 372.664,10.001 372.664,163.827 372.649,164.219 372.602,164.609 372.526,164.994 372.419,165.372 372.283,165.740 372.119,166.096 371.927,166.439 371.709,166.765 371.466,167.074 371.200,167.362 370.911,167.629 370.603,167.872 370.276,168.090 369.934,168.282 369.577,168.446 369.209,168.582 368.831,168.688 368.446,168.765 368.056,168.811 367.664,168.827 10.001,168.827 9.608,168.811 9.218,168.765 8.833,168.688 8.455,168.582 8.087,168.446 7.731,168.282 7.388,168.090 7.062,167.872 6.753,167.629 6.465,167.362 6.198,167.074 5.955,166.765 5.737,166.439 5.545,166.096 5.381,165.740 5.245,165.372 5.139,164.994 5.062,164.609 5.016,164.219 5.000,163.827 5.001,10.001 5.016,9.608 5.062,9.218 5.139,8.833 5.245,8.455 5.381,8.087 5.545,7.731 5.737,7.388 5.955,7.062 6.198,6.753 6.465,6.465 6.753,6.198 7.062,5.955 7.388,5.737 7.731,5.545 8.087,5.381 8.455,5.245 8.833,5.139 9.218,5.062 9.608,5.016 10.001,5.000" style="fill:none;stroke-width:0.050000mm;stroke:black"/>
<polygon points="367.046,161.924 366.488,162.208 366.046,162.651 365.762,163.208 365.664,163.827 365.762,164.445 366.046,165.002 366.488,165.445 367.046,165.729 367.664,165.827 368.282,165.729 368.840,165.445 369.282,165.002 369.566,164.445 369.664,163.827 369.566,163.208 369.282,162.651 368.840,162.208 368.282,161.924 367.664,161.827" style="fill:none;stroke-width:0.050000mm;stroke:black"/>
<polygon points="247.825,161.924 247.267,162.208 246.825,162.651 246.541,163.208 246.443,163.827 246.541,164.445 246.825,165.002 247.267,165.445 247.825,165.729 248.443,165.827 249.061,165.729 249.618,165.445 250.061,165.002 250.345,164.445 250.443,163.827 250.345,163.208 250.061,162.651 249.618,162.208 249.061,161.924 248.443,161.827" style="fill:none;stroke-width:0.050000mm;stroke:black"/>
<polygon points="128.604,161.924 128.045,162.208 127.604,162.651 127.320,163.208 127.222,163.827 127.320,164.445 127.604,165.002 128.045,165.445 128.604,165.729 129.222,165.827 129.840,165.729 130.396,165.445 130.840,165.002 131.124,164.445 131.222,163.827 131.124,163.208 130.840,162.651 130.396,162.208 129.840,161.924 129.222,161.827" style="fill:none;stroke-width:0.050000mm;stroke:black"/>
<polygon points="9.382,161.924 8.825,162.208 8.382,162.651 8.097,163.208 8.000,163.827 8.097,164.445 8.382,165.002 8.825,165.445 9.382,165.729 10.000,165.827 10.619,165.729 11.176,165.445 11.619,165.002 11.903,164.445 12.000,163.827 11.903,163.208 11.619,162.651 11.176,162.208 10.619,161.924 10.000,161.827" style="fill:none;stroke-width:0.050000mm;stroke:black"/>
<polygon points="138.969,132.301 138.969,137.001 99.344,137.001 99.344,133.771 92.594,133.771 92.594,137.001 91.769,137.001 91.769,139.801 92.594,139.801 92.594,146.071 94.319,146.071 94.319,147.271 97.619,147.271 97.619,146.071 99.344,146.071 99.344,141.601 138.969,141.601 138.969,146.301 152.969,146.301 152.969,141.601 192.594,141.601 192.594,146.071 194.319,146.071 194.319,147.271 197.619,147.271 197.619,146.071 199.344,146.071 199.344,139.801 200.169,139.801 200.169,137.001 199.344,137.001 199.344,133.771 192.594,133.771 192.594,137.001 152.969,137.001 152.969,132.301" style="fill:none;stroke-width:0.050000mm;stroke:black"/>
<polygon points="19.907,132.301 19.907,146.301 33.907,146.301 33.907,132.301" style="fill:none;stroke-width:0.050000mm;stroke:black"/>
<polygon points="43.719,132.301 43.719,146.301 57.719,146.301 57.719,132.301" style="fill:none;stroke-width:0.050000mm;stroke:black"/>
<polygon points="67.532,132.301 67.532,146.301 81.532,146.301 81.532,132.301" style="fill:none;stroke-width:0.050000mm;stroke:black"/>
<polygon points="210.407,132.301 210.407,146.301 224.407,146.301 224.407,132.301" style="fill:none;stroke-width:0.050000mm;stroke:black"/>
<polygon points="234.219,132.301 234.219,146.301 248.219,146.301 248.219,132.301" style="fill:none;stroke-width:0.050000mm;stroke:black"/>
<polygon points="258.032,132.301 258.032,146.301 272.032,146.301 272.032,132.301" style="fill:none;stroke-width:0.050000mm;stroke:black"/>
<polygon points="281.844,132.301 281.844,146.301 295.844,146.301 295.844,132.301" style="fill:none;stroke-width:0.050000mm;stroke:black"/>
<polygon points="308.038,132.301 308.038,146.301 322.038,146.301 322.038,132.301" style="fill:none;stroke-width:0.050000mm;stroke:black"/>
<polygon points="327.088,132.301 327.088,146.301 341.088,146.301 341.088,132.301" style="fill:none;stroke-width:0.050000mm;stroke:black"/>
<polygon points="346.138,132.301 346.138,146.301 360.138,146.301 360.138,132.301" style="fill:none;stroke-width:0.050000mm;stroke:black"/>
<polygon points="29.432,113.251 29.432,117.951 27.907,117.951 27.907,114.721 21.157,114.721 21.157,117.951 20.332,117.951 20.332,120.751 21.157,120.751 21.157,127.021 22.882,127.021 22.882,128.221 26.182,128.221 26.182,127.021 27.907,127.021 27.907,122.551 29.432,122.551 29.432,127.251 43.432,127.251 43.432,122.551 44.957,122.551 44.957,127.021 46.682,127.021 46.682,128.221 49.982,128.221 49.982,127.021 51.707,127.021 51.707,120.751 52.532,120.751 52.532,117.951 51.707,117.951 51.707,114.721 44.957,114.721 44.957,117.951 43.432,117.951 43.432,113.251" style="fill:none;stroke-width:0.050000mm;stroke:black"/>
<polygon points="267.557,113.251 267.557,117.951 266.032,117.951 266.032,114.721 259.282,114.721 259.282,117.951 258.457,117.951 258.457,120.751 259.282,120.751 259.282,127.021 261.006,127.021 261.006,128.221 264.307,128.221 264.307,127.021 266.032,127.021 266.032,122.551 267.557,122.551 267.557,127.251 281.557,127.251 281.557,122.551 283.082,122.551 283.082,127.021 284.807,127.021 284.807,128.221 288.107,128.221 288.107,127.021 289.832,127.021 289.832,120.751 290.657,120.751 290.657,117.951 289.832,117.951 289.832,114.721 283.082,114.721 283.082,117.951 281.557,117.951 281.557,113.251" style="fill:none;stroke-width:0.050000mm;stroke:black"/>
<polygon points="60.388,113.251 60.388,127.251 74.388,127.251 74.388,113.251" style="fill:none;stroke-width:0.050000mm;stroke:black"/>
<polygon points="79.438,113.251 79.438,127.251 93.438,127.251 93.438,113.251" style="fill:none;stroke-width:0.050000mm;stroke:black"/>
<polygon points="98.488,113.251 98.488,127.251 112.488,127.251 112.488,113.251" style="fill:none;stroke-width:0.050000mm;stroke:black"/>
<polygon points="117.538,113.251 117.538,127.251 131.538,127.251 131.538,113.251" style="fill:none;stroke-width:0.050000mm;stroke:black"/>
<polygon points="136.588,113.251 136.588,127.251 150.588,127.251 150.588,113.251" style="fill:none;stroke-width:0.050000mm;stroke:black"/>
<polygon points="155.638,113.251 155.638,127.251 169.638,127.251 169.638,113.251" style="fill:none;stroke-width:0.050000mm;stroke:black"/>
<polygon points="174.688,113.251 174.688,127.251 188.688,127.251 188.688,113.251" style="fill:none;stroke-width:0.050000mm;stroke:black"/>
<polygon points="193.738,113.251 193.738,127.251 207.738,127.251 207.738,113.251" style="fill:none;stroke-width:0.050000mm;stroke:black"/>
<polygon points="212.788,113.251 212.788,127.251 226.788,127.251 226.788,113.251" style="fill:none;stroke-width:0.050000mm;stroke:black"/>
<polygon points="231.838,113.251 231.838,127.251 245.838,127.251 245.838,113.251" style="fill:none;stroke-width:0.050000mm;stroke:black"/>
<polygon points="327.088,113.251 327.088,127.251 341.088,127.251 341.088,113.251" style="fill:none;stroke-width:0.050000mm;stroke:black"/>
<polygon points="24.669,94.201 24.669,108.201 38.669,108.201 38.669,94.201" style="fill:none;stroke-width:0.050000mm;stroke:black"/>
<polygon points="50.863,94.201 50.863,108.201 64.862,108.201 64.862,94.201" style="fill:none;stroke-width:0.050000mm;stroke:black"/>
<polygon points="69.913,94.201 69.913,108.201 83.913,108.201 83.913,94.201" style="fill:none;stroke-width:0.050000mm;stroke:black"/>
<polygon points="88.963,94.201 88.963,108.201 102.963,108.201 102.963,94.201" style="fill:none;stroke-width:0.050000mm;stroke:black"/>
<polygon points="108.013,94.201 108.013,108.201 122.013,108.201 122.013,94.201" style="fill:none;stroke-width:0.050000mm;stroke:black"/>
<polygon points="127.063,94.201 127.063,108.201 141.063,108.201 141.063,94.201" style="fill:none;stroke-width:0.050000mm;stroke:black"/>
<polygon points="146.113,94.201 146.113,108.201 160.113,108.201 160.113,94.201" style="fill:none;stroke-width:0.050000mm;stroke:black"/>
<polygon points="165.163,94.201 165.163,108.201 179.163,108.201 179.163,94.201" style="fill:none;stroke-width:0.050000mm;stroke:black"/>
<polygon points="184.213,94.201 184.213,108.201 198.213,108.201 198.213,94.201" style="fill:none;stroke-width:0.050000mm;stroke:black"/>
<polygon points="203.263,94.201 203.263,108.201 217.263,108.201 217.263,94.201" style="fill:none;stroke-width:0.050000mm;stroke:black"/>
<polygon points="222.313,94.201 222.313,108.201 236.313,108.201 236.313,94.201" style="fill:none;stroke-width:0.050000mm;stroke:black"/>
<polygon points="241.363,94.201 241.363,108.201 255.363,108.201 255.363,94.201" style="fill:none;stroke-width:0.050000mm;stroke:black"/>
<polygon points="260.412,94.201 260.412,108.201 274.413,108.201 274.413,94.201" style="fill:none;stroke-width:0.050000mm;stroke:black"/>
<polygon points="288.344,75.576 288.344,76.401 282.074,76.401 282.074,78.126 280.874,78.126 280.874,81.426 282.074,81.426 282.074,83.151 286.544,83.151 286.544,84.676 281.844,84.676 281.844,98.676 286.544,98.676 286.544,100.201 282.074,100.201 282.074,101.926 280.874,101.926 280.874,105.226 282.074,105.226 282.074,106.951 288.344,106.951 288.344,107.776 291.144,107.776 291.144,106.951 294.374,106.951 294.374,100.201 291.144,100.201 291.144,98.676 295.844,98.676 295.844,84.676 291.144,84.676 291.144,83.151 294.374,83.151 294.374,76.401 291.144,76.401 291.144,75.576" style="fill:none;stroke-width:0.050000mm;stroke:black"/>
<polygon points="22.288,75.151 22.288,89.151 36.288,89.151 36.288,75.151" style="fill:none;stroke-width:0.050000mm;stroke:black"/>
<polygon points="46.101,75.151 46.101,89.151 60.101,89.151 60.101,75.151" style="fill:none;stroke-width:0.050000mm;stroke:black"/>
<polygon points="65.151,75.151 65.151,89.151 79.151,89.151 79.151,75.151" style="fill:none;stroke-width:0.050000mm;stroke:black"/>
<polygon points="84.201,75.151 84.201,89.151 98.201,89.151 98.201,75.151" style="fill:none;stroke-width:0.050000mm;stroke:black"/>
<polygon points="103.251,75.151 103.251,89.151 117.251,89.151 117.251,75.151" style="fill:none;stroke-width:0.050000mm;stroke:black"/>
<polygon points="122.301,75.151 122.301,89.151 136.301,89.151 136.301,75.151" style="fill:none;stroke-width:0.050000mm;stroke:black"/>
<polygon points="141.351,75.151 141.351,89.151 155.351,89.151 155.351,75.151" style="fill:none;stroke-width:0.050000mm;stroke:black"/>
<polygon points="160.401,75.151 160.401,89.151 174.401,89.151 174.401,75.151" style="fill:none;stroke-width:0.050000mm;stroke:black"/>
<polygon points="179.451,75.151 179.451,89.151 193.451,89.151 193.451,75.151" style="fill:none;stroke-width:0.050000mm;stroke:black"/>
<polygon points="198.501,75.151 198.501,89.151 212.501,89.151 212.501,75.151" style="fill:none;stroke-width:0.050000mm;stroke:black"/>
<polygon points="217.551,75.151 217.551,89.151 231.551,89.151 231.551,75.151" style="fill:none;stroke-width:0.050000mm;stroke:black"/>
<polygon points="236.601,75.151 236.601,89.151 250.601,89.151 250.601,75.151" style="fill:none;stroke-width:0.050000mm;stroke:black"/>
<polygon points="255.651,75.151 255.651,89.151 269.651,89.151 269.651,75.151" style="fill:none;stroke-width:0.050000mm;stroke:black"/>
<polygon points="308.038,75.151 308.038,89.151 322.038,89.151 322.038,75.151" style="fill:none;stroke-width:0.050000mm;stroke:black"/>
<polygon points="327.088,75.151 327.088,89.151 341.088,89.151 341.088,75.151" style="fill:none;stroke-width:0.050000mm;stroke:black"/>
<polygon points="346.138,75.151 346.138,89.151 360.138,89.151 360.138,75.151" style="fill:none;stroke-width:0.050000mm;stroke:black"/>
<polygon points="274.701,56.101 274.701,60.801 273.176,60.801 273.176,57.571 266.426,57.571 266.426,60.801 265.601,60.801 265.601,63.601 266.426,63.601 266.426,69.871 268.151,69.871 268.151,71.071 271.451,71.071 271.451,69.871 273.176,69.871 273.176,65.401 274.701,65.401 274.701,70.101 288.701,70.101 288.701,65.401 290.226,65.401 290.226,69.871 291.951,69.871 291.951,71.071 295.251,71.071 295.251,69.871 296.976,69.871 296.976,63.601 297.801,63.601 297.801,60.801 296.976,60.801 296.976,57.571 290.226,57.571 290.226,60.801 288.701,60.801 288.701,56.101" style="fill:none;stroke-width:0.050000mm;stroke:black"/>
<polygon points="17.526,56.101 17.526,70.101 31.526,70.101 31.526,56.101" style="fill:none;stroke-width:0.050000mm;stroke:black"/>
<polygon points="36.576,56.101 36.576,70.101 50.576,70.101 50.576,56.101" style="fill:none;stroke-width:0.050000mm;stroke:black"/>
<polygon points="55.626,56.101 55.626,70.101 69.626,70.101 69.626,56.101" style="fill:none;stroke-width:0.050000mm;stroke:black"/>
<polygon points="74.676,56.101 74.676,70.101 88.676,70.101 88.676,56.101" style="fill:none;stroke-width:0.050000mm;stroke:black"/>
<polygon points="93.726,56.101 93.726,70.101 107.726,70.101 107.726,56.101" style="fill:none;stroke-width:0.050000mm;stroke:black"/>
<polygon points="112.775,56.101 112.775,70.101 126.775,70.101 126.775,56.101" style="fill:none;stroke-width:0.050000mm;stroke:black"/>
<polygon points="131.826,56.101 131.826,70.101 145.826,70.101 145.826,56.101" style="fill:none;stroke-width:0.050000mm;stroke:black"/>
<polygon points="150.876,56.101 150.876,70.101 164.876,70.101 164.876,56.101" style="fill:none;stroke-width:0.050000mm;stroke:black"/>
<polygon points="169.926,56.101 169.926,70.101 183.926,70.101 183.926,56.101" style="fill:none;stroke-width:0.050000mm;stroke:black"/>
<polygon points="188.976,56.101 188.976,70.101 202.976,70.101 202.976,56.101" style="fill:none;stroke-width:0.050000mm;stroke:black"/>
<polygon points="208.026,56.101 208.026,70.101 222.026,70.101 222.026,56.101" style="fill:none;stroke-width:0.050000mm;stroke:black"/>
<polygon points="227.076,56.101 227.076,70.101 241.076,70.101 241.076,56.101" style="fill:none;stroke-width:0.050000mm;stroke:black"/>
<polygon points="246.126,56.101 246.126,70.101 260.126,70.101 260.126,56.101" style="fill:none;stroke-width:0.050000mm;stroke:black"/>
<polygon points="308.038,56.101 308.038,70.101 322.038,70.101 322.038,56.101" style="fill:none;stroke-width:0.050000mm;stroke:black"/>
<polygon points="327.088,56.101 327.088,70.101 341.088,70.101 341.088,56.101" style="fill:none;stroke-width:0.050000mm;stroke:black"/>
<polygon points="346.138,56.101 346.138,70.101 360.138,70.101 360.138,56.101" style="fill:none;stroke-width:0.050000mm;stroke:black"/>
<polygon points="17.526,27.526 17.526,41.526 31.526,41.526 31.526,27.526" style="fill:none;stroke-width:0.050000mm;stroke:black"/>
<polygon points="55.626,27.526 55.626,41.526 69.626,41.526 69.626,27.526" style="fill:none;stroke-width:0.050000mm;stroke:black"/>
<polygon points="74.676,27.526 74.676,41.526 88.676,41.526 88.676,27.526" style="fill:none;stroke-width:0.050000mm;stroke:black"/>
<polygon points="93.726,27.526 93.726,41.526 107.726,41.526 107.726,27.526" style="fill:none;stroke-width:0.050000mm;stroke:black"/>
<polygon points="112.775,27.526 112.775,41.526 126.775,41.526 126.775,27.526" style="fill:none;stroke-width:0.050000mm;stroke:black"/>
<polygon points="141.351,27.526 141.351,41.526 155.351,41.526 155.351,27.526" style="fill:none;stroke-width:0.050000mm;stroke:black"/>
<polygon points="160.401,27.526 160.401,41.526 174.401,41.526 174.401,27.526" style="fill:none;stroke-width:0.050000mm;stroke:black"/>
<polygon points="179.451,27.526 179.451,41.526 193.451,41.526 193.451,27.526" style="fill:none;stroke-width:0.050000mm;stroke:black"/>
<polygon points="198.501,27.526 198.501,41.526 212.501,41.526 212.501,27.526" style="fill:none;stroke-width:0.050000mm;stroke:black"/>
<polygon points="227.076,27.526 227.076,41.526 241.076,41.526 241.076,27.526" style="fill:none;stroke-width:0.050000mm;stroke:black"/>
<polygon points="246.126,27.526 246.126,41.526 260.126,41.526 260.126,27.526" style="fill:none;stroke-width:0.050000mm;stroke:black"/>
<polygon points="265.176,27.526 265.176,41.526 279.176,41.526 279.176,27.526" style="fill:none;stroke-width:0.050000mm;stroke:black"/>
<polygon points="284.226,27.526 284.226,41.526 298.226,41.526 298.226,27.526" style="fill:none;stroke-width:0.050000mm;stroke:black"/>
<polygon points="308.038,27.526 308.038,41.526 322.038,41.526 322.038,27.526" style="fill:none;stroke-width:0.050000mm;stroke:black"/>
<polygon points="327.088,27.526 327.088,41.526 341.088,41.526 341.088,27.526" style="fill:none;stroke-width:0.050000mm;stroke:black"/>
<polygon points="346.138,27.526 346.138,41.526 360.138,41.526 360.138,27.526" style="fill:none;stroke-width:0.050000mm;stroke:black"/>
<polygon points="128.604,8.097 128.045,8.382 127.604,8.825 127.320,9.382 127.222,10.001 127.320,10.619 127.604,11.176 128.045,11.619 128.604,11.903 129.222,12.001 129.840,11.903 130.396,11.619 130.840,11.176 131.124,10.619 131.222,10.001 131.124,9.382 130.840,8.825 130.396,8.382 129.840,8.097 129.222,8.001" style="fill:none;stroke-width:0.050000mm;stroke:black"/>
<polygon points="247.825,8.097 247.267,8.382 246.825,8.825 246.541,9.382 246.443,10.001 246.541,10.619 246.825,11.176 247.267,11.619 247.825,11.903 248.443,12.001 249.061,11.903 249.618,11.619 250.061,11.176 250.345,10.619 250.443,10.001 250.345,9.382 250.061,8.825 249.618,8.382 249.061,8.097 248.443,8.001" style="fill:none;stroke-width:0.050000mm;stroke:black"/>
<polygon points="367.046,8.097 366.488,8.382 366.046,8.825 365.762,9.382 365.664,10.001 365.762,10.619 366.046,11.176 366.488,11.619 367.046,11.903 367.664,12.001 368.282,11.903 368.840,11.619 369.282,11.176 369.566,10.619 369.664,10.001 369.566,9.382 369.282,8.825 368.840,8.382 368.282,8.097 367.664,8.001" style="fill:none;stroke-width:0.050000mm;stroke:black"/>
<polygon points="9.382,8.097 8.825,8.382 8.382,8.825 8.097,9.382 8.000,10.001 8.097,10.619 8.382,11.176 8.825,11.619 9.382,11.903 10.000,12.001 10.619,11.903 11.176,11.619 11.619,11.176 11.903,10.619 12.000,10.001 11.903,9.382 11.619,8.825 11.176,8.382 10.619,8.097 10.000,8.001" style="fill:none;stroke-width:0.050000mm;stroke:black"/>
</svg>
