  0
SECTION
  2
HEADER
  9
$ACADVER
  1
AC1009
  9
$EXTMIN
 10
0.0
 20
0.0
 30
0.0
  9
$EXTMAX
 10
1000.0
 20
1000.0
 30
0.0
  9
$FILLMODE
 70
 0
  9
$SPLFRAME
 70
 1
  0
ENDSEC
  0
SECTION
  2
TABLES
  0
TABLE
  2
LAYER
 70
1
  0
LAYER
  2
0
 70
     0
 62
     7
  6
CONTINUOUS
  0
ENDTAB
  0
ENDSEC
  0
SECTION
  2
ENTITIES
  0
LINE
  8
0
 62
     0
 10
362.758
 20
163.905
 30
0.0
 11
363.149
 21
163.89
 31
0.0
  0
LINE
  8
0
 62
     0
 10
363.149
 20
163.89
 30
0.0
 11
363.541
 21
163.844
 31
0.0
  0
LINE
  8
0
 62
     0
 10
363.541
 20
163.844
 30
0.0
 11
363.926
 21
163.768
 31
0.0
  0
LINE
  8
0
 62
     0
 10
363.926
 20
163.768
 30
0.0
 11
364.303
 21
163.661
 31
0.0
  0
LINE
  8
0
 62
     0
 10
364.303
 20
163.661
 30
0.0
 11
364.67
 21
163.525
 31
0.0
  0
LINE
  8
0
 62
     0
 10
364.67
 20
163.525
 30
0.0
 11
365.026
 21
163.361
 31
0.0
  0
LINE
  8
0
 62
     0
 10
365.026
 20
163.361
 30
0.0
 11
365.372
 21
163.169
 31
0.0
  0
LINE
  8
0
 62
     0
 10
365.372
 20
163.169
 30
0.0
 11
365.696
 21
162.952
 31
0.0
  0
LINE
  8
0
 62
     0
 10
365.696
 20
162.952
 30
0.0
 11
366.003
 21
162.709
 31
0.0
  0
LINE
  8
0
 62
     0
 10
366.003
 20
162.709
 30
0.0
 11
366.293
 21
162.442
 31
0.0
  0
LINE
  8
0
 62
     0
 10
366.293
 20
162.442
 30
0.0
 11
366.561
 21
162.154
 31
0.0
  0
LINE
  8
0
 62
     0
 10
366.561
 20
162.154
 30
0.0
 11
366.801
 21
161.845
 31
0.0
  0
LINE
  8
0
 62
     0
 10
366.801
 20
161.845
 30
0.0
 11
367.023
 21
161.519
 31
0.0
  0
LINE
  8
0
 62
     0
 10
367.023
 20
161.519
 30
0.0
 11
367.213
 21
161.175
 31
0.0
  0
LINE
  8
0
 62
     0
 10
367.213
 20
161.175
 30
0.0
 11
367.376
 21
160.82
 31
0.0
  0
LINE
  8
0
 62
     0
 10
367.376
 20
160.82
 30
0.0
 11
367.513
 21
160.452
 31
0.0
  0
LINE
  8
0
 62
     0
 10
367.513
 20
160.452
 30
0.0
 11
367.619
 21
160.073
 31
0.0
  0
LINE
  8
0
 62
     0
 10
367.619
 20
160.073
 30
0.0
 11
367.697
 21
159.688
 31
0.0
  0
LINE
  8
0
 62
     0
 10
367.697
 20
159.688
 30
0.0
 11
367.743
 21
159.299
 31
0.0
  0
LINE
  8
0
 62
     0
 10
367.743
 20
159.299
 30
0.0
 11
367.757
 21
158.906
 31
0.0
  0
LINE
  8
0
 62
     0
 10
367.757
 20
158.906
 30
0.0
 11
367.757
 21
5.07944
 31
0.0
  0
LINE
  8
0
 62
     0
 10
367.757
 20
5.07944
 30
0.0
 11
367.743
 21
4.6881
 31
0.0
  0
LINE
  8
0
 62
     0
 10
367.743
 20
4.6881
 30
0.0
 11
367.697
 21
4.2981
 31
0.0
  0
LINE
  8
0
 62
     0
 10
367.697
 20
4.2981
 30
0.0
 11
367.619
 21
3.91223
 31
0.0
  0
LINE
  8
0
 62
     0
 10
367.619
 20
3.91223
 30
0.0
 11
367.513
 21
3.53466
 31
0.0
  0
LINE
  8
0
 62
     0
 10
367.513
 20
3.53466
 30
0.0
 11
367.376
 21
3.16673
 31
0.0
  0
LINE
  8
0
 62
     0
 10
367.376
 20
3.16673
 30
0.0
 11
367.213
 21
2.8112
 31
0.0
  0
LINE
  8
0
 62
     0
 10
367.213
 20
2.8112
 30
0.0
 11
367.023
 21
2.46807
 31
0.0
  0
LINE
  8
0
 62
     0
 10
367.023
 20
2.46807
 30
0.0
 11
366.801
 21
2.14147
 31
0.0
  0
LINE
  8
0
 62
     0
 10
366.801
 20
2.14147
 30
0.0
 11
366.561
 21
1.83279
 31
0.0
  0
LINE
  8
0
 62
     0
 10
366.561
 20
1.83279
 30
0.0
 11
366.293
 21
1.54478
 31
0.0
  0
LINE
  8
0
 62
     0
 10
366.293
 20
1.54478
 30
0.0
 11
366.003
 21
1.27744
 31
0.0
  0
LINE
  8
0
 62
     0
 10
366.003
 20
1.27744
 30
0.0
 11
365.696
 21
1.03491
 31
0.0
  0
LINE
  8
0
 62
     0
 10
365.696
 20
1.03491
 30
0.0
 11
365.372
 21
0.817178
 31
0.0
  0
LINE
  8
0
 62
     0
 10
365.372
 20
0.817178
 30
0.0
 11
365.026
 21
0.624251
 31
0.0
  0
LINE
  8
0
 62
     0
 10
365.026
 20
0.624251
 30
0.0
 11
364.67
 21
0.460266
 31
0.0
  0
LINE
  8
0
 62
     0
 10
364.67
 20
0.460266
 30
0.0
 11
364.303
 21
0.325217
 31
0.0
  0
LINE
  8
0
 62
     0
 10
364.303
 20
0.325217
 30
0.0
 11
363.926
 21
0.219108
 31
0.0
  0
LINE
  8
0
 62
     0
 10
363.926
 20
0.219108
 30
0.0
 11
363.541
 21
0.141938
 31
0.0
  0
LINE
  8
0
 62
     0
 10
363.541
 20
0.141938
 30
0.0
 11
363.149
 21
0.0950846
 31
0.0
  0
LINE
  8
0
 62
     0
 10
363.149
 20
0.0950846
 30
0.0
 11
362.758
 21
0.0799264
 31
0.0
  0
LINE
  8
0
 62
     0
 10
362.758
 20
0.0799264
 30
0.0
 11
5.0946
 21
0.0799264
 31
0.0
  0
LINE
  8
0
 62
     0
 10
5.0946
 20
0.0799264
 30
0.0
 11
4.70186
 21
0.0950846
 31
0.0
  0
LINE
  8
0
 62
     0
 10
4.70186
 20
0.0950846
 30
0.0
 11
4.3119
 21
0.141938
 31
0.0
  0
LINE
  8
0
 62
     0
 10
4.3119
 20
0.141938
 30
0.0
 11
3.9274
 21
0.219108
 31
0.0
  0
LINE
  8
0
 62
     0
 10
3.9274
 20
0.219108
 30
0.0
 11
3.54845
 21
0.325217
 31
0.0
  0
LINE
  8
0
 62
     0
 10
3.54845
 20
0.325217
 30
0.0
 11
3.18051
 21
0.460266
 31
0.0
  0
LINE
  8
0
 62
     0
 10
3.18051
 20
0.460266
 30
0.0
 11
2.82498
 21
0.624251
 31
0.0
  0
LINE
  8
0
 62
     0
 10
2.82498
 20
0.624251
 30
0.0
 11
2.48185
 21
0.817178
 31
0.0
  0
LINE
  8
0
 62
     0
 10
2.48185
 20
0.817178
 30
0.0
 11
2.15525
 21
1.03491
 31
0.0
  0
LINE
  8
0
 62
     0
 10
2.15525
 20
1.03491
 30
0.0
 11
1.84657
 21
1.27744
 31
0.0
  0
LINE
  8
0
 62
     0
 10
1.84657
 20
1.27744
 30
0.0
 11
1.55856
 21
1.54478
 31
0.0
  0
LINE
  8
0
 62
     0
 10
1.55856
 20
1.54478
 30
0.0
 11
1.29122
 21
1.83279
 31
0.0
  0
LINE
  8
0
 62
     0
 10
1.29122
 20
1.83279
 30
0.0
 11
1.04869
 21
2.14147
 31
0.0
  0
LINE
  8
0
 62
     0
 10
1.04869
 20
2.14147
 30
0.0
 11
0.830957
 21
2.46807
 31
0.0
  0
LINE
  8
0
 62
     0
 10
0.830957
 20
2.46807
 30
0.0
 11
0.63941
 21
2.8112
 31
0.0
  0
LINE
  8
0
 62
     0
 10
0.63941
 20
2.8112
 30
0.0
 11
0.475424
 21
3.16673
 31
0.0
  0
LINE
  8
0
 62
     0
 10
0.475424
 20
3.16673
 30
0.0
 11
0.338998
 21
3.53466
 31
0.0
  0
LINE
  8
0
 62
     0
 10
0.338998
 20
3.53466
 30
0.0
 11
0.232888
 21
3.91223
 31
0.0
  0
LINE
  8
0
 62
     0
 10
0.232888
 20
3.91223
 30
0.0
 11
0.155718
 21
4.2981
 31
0.0
  0
LINE
  8
0
 62
     0
 10
0.155718
 20
4.2981
 30
0.0
 11
0.110243
 21
4.6881
 31
0.0
  0
LINE
  8
0
 62
     0
 10
0.110243
 20
4.6881
 30
0.0
 11
0.0937066
 21
5.07944
 31
0.0
  0
LINE
  8
0
 62
     0
 10
0.0937066
 20
5.07944
 30
0.0
 11
0.0950846
 21
158.906
 31
0.0
  0
LINE
  8
0
 62
     0
 10
0.0950846
 20
158.906
 30
0.0
 11
0.110243
 21
159.299
 31
0.0
  0
LINE
  8
0
 62
     0
 10
0.110243
 20
159.299
 30
0.0
 11
0.155718
 21
159.688
 31
0.0
  0
LINE
  8
0
 62
     0
 10
0.155718
 20
159.688
 30
0.0
 11
0.232888
 21
160.073
 31
0.0
  0
LINE
  8
0
 62
     0
 10
0.232888
 20
160.073
 30
0.0
 11
0.338998
 21
160.452
 31
0.0
  0
LINE
  8
0
 62
     0
 10
0.338998
 20
160.452
 30
0.0
 11
0.475424
 21
160.82
 31
0.0
  0
LINE
  8
0
 62
     0
 10
0.475424
 20
160.82
 30
0.0
 11
0.63941
 21
161.175
 31
0.0
  0
LINE
  8
0
 62
     0
 10
0.63941
 20
161.175
 30
0.0
 11
0.830957
 21
161.519
 31
0.0
  0
LINE
  8
0
 62
     0
 10
0.830957
 20
161.519
 30
0.0
 11
1.04869
 21
161.845
 31
0.0
  0
LINE
  8
0
 62
     0
 10
1.04869
 20
161.845
 30
0.0
 11
1.29122
 21
162.154
 31
0.0
  0
LINE
  8
0
 62
     0
 10
1.29122
 20
162.154
 30
0.0
 11
1.55856
 21
162.442
 31
0.0
  0
LINE
  8
0
 62
     0
 10
1.55856
 20
162.442
 30
0.0
 11
1.84657
 21
162.709
 31
0.0
  0
LINE
  8
0
 62
     0
 10
1.84657
 20
162.709
 30
0.0
 11
2.15525
 21
162.952
 31
0.0
  0
LINE
  8
0
 62
     0
 10
2.15525
 20
162.952
 30
0.0
 11
2.48185
 21
163.169
 31
0.0
  0
LINE
  8
0
 62
     0
 10
2.48185
 20
163.169
 30
0.0
 11
2.82498
 21
163.361
 31
0.0
  0
LINE
  8
0
 62
     0
 10
2.82498
 20
163.361
 30
0.0
 11
3.18051
 21
163.525
 31
0.0
  0
LINE
  8
0
 62
     0
 10
3.18051
 20
163.525
 30
0.0
 11
3.54845
 21
163.661
 31
0.0
  0
LINE
  8
0
 62
     0
 10
3.54845
 20
163.661
 30
0.0
 11
3.9274
 21
163.768
 31
0.0
  0
LINE
  8
0
 62
     0
 10
3.9274
 20
163.768
 30
0.0
 11
4.3119
 21
163.844
 31
0.0
  0
LINE
  8
0
 62
     0
 10
4.3119
 20
163.844
 30
0.0
 11
4.70186
 21
163.89
 31
0.0
  0
LINE
  8
0
 62
     0
 10
4.70186
 20
163.89
 30
0.0
 11
5.0946
 21
163.907
 31
0.0
  0
LINE
  8
0
 62
     0
 10
5.0946
 20
163.907
 30
0.0
 11
362.758
 21
163.905
 31
0.0
  0
LINE
  8
0
 62
     0
 10
362.141
 20
6.98253
 30
0.0
 11
361.583
 21
6.69865
 31
0.0
  0
LINE
  8
0
 62
     0
 10
361.583
 20
6.69865
 30
0.0
 11
361.139
 21
6.25493
 31
0.0
  0
LINE
  8
0
 62
     0
 10
361.139
 20
6.25493
 30
0.0
 11
360.856
 21
5.69817
 31
0.0
  0
LINE
  8
0
 62
     0
 10
360.856
 20
5.69817
 30
0.0
 11
360.758
 21
5.07944
 31
0.0
  0
LINE
  8
0
 62
     0
 10
360.758
 20
5.07944
 30
0.0
 11
360.856
 21
4.46207
 31
0.0
  0
LINE
  8
0
 62
     0
 10
360.856
 20
4.46207
 30
0.0
 11
361.139
 21
3.90398
 31
0.0
  0
LINE
  8
0
 62
     0
 10
361.139
 20
3.90398
 30
0.0
 11
361.583
 21
3.46163
 31
0.0
  0
LINE
  8
0
 62
     0
 10
361.583
 20
3.46163
 30
0.0
 11
362.141
 21
3.17776
 31
0.0
  0
LINE
  8
0
 62
     0
 10
362.141
 20
3.17776
 30
0.0
 11
362.758
 21
3.07992
 31
0.0
  0
LINE
  8
0
 62
     0
 10
362.758
 20
3.07992
 30
0.0
 11
363.375
 21
3.17776
 31
0.0
  0
LINE
  8
0
 62
     0
 10
363.375
 20
3.17776
 30
0.0
 11
363.936
 21
3.46163
 31
0.0
  0
LINE
  8
0
 62
     0
 10
363.936
 20
3.46163
 30
0.0
 11
364.377
 21
3.90398
 31
0.0
  0
LINE
  8
0
 62
     0
 10
364.377
 20
3.90398
 30
0.0
 11
364.659
 21
4.46207
 31
0.0
  0
LINE
  8
0
 62
     0
 10
364.659
 20
4.46207
 30
0.0
 11
364.758
 21
5.07944
 31
0.0
  0
LINE
  8
0
 62
     0
 10
364.758
 20
5.07944
 30
0.0
 11
364.659
 21
5.69817
 31
0.0
  0
LINE
  8
0
 62
     0
 10
364.659
 20
5.69817
 30
0.0
 11
364.377
 21
6.25493
 31
0.0
  0
LINE
  8
0
 62
     0
 10
364.377
 20
6.25493
 30
0.0
 11
363.936
 21
6.69865
 31
0.0
  0
LINE
  8
0
 62
     0
 10
363.936
 20
6.69865
 30
0.0
 11
363.375
 21
6.98253
 31
0.0
  0
LINE
  8
0
 62
     0
 10
363.375
 20
6.98253
 30
0.0
 11
362.758
 21
7.07898
 31
0.0
  0
LINE
  8
0
 62
     0
 10
362.758
 20
7.07898
 30
0.0
 11
362.141
 21
6.98253
 31
0.0
  0
LINE
  8
0
 62
     0
 10
242.919
 20
6.98253
 30
0.0
 11
242.361
 21
6.69865
 31
0.0
  0
LINE
  8
0
 62
     0
 10
242.361
 20
6.69865
 30
0.0
 11
241.919
 21
6.25493
 31
0.0
  0
LINE
  8
0
 62
     0
 10
241.919
 20
6.25493
 30
0.0
 11
241.635
 21
5.69817
 31
0.0
  0
LINE
  8
0
 62
     0
 10
241.635
 20
5.69817
 30
0.0
 11
241.537
 21
5.07944
 31
0.0
  0
LINE
  8
0
 62
     0
 10
241.537
 20
5.07944
 30
0.0
 11
241.635
 21
4.46207
 31
0.0
  0
LINE
  8
0
 62
     0
 10
241.635
 20
4.46207
 30
0.0
 11
241.919
 21
3.90398
 31
0.0
  0
LINE
  8
0
 62
     0
 10
241.919
 20
3.90398
 30
0.0
 11
242.361
 21
3.46163
 31
0.0
  0
LINE
  8
0
 62
     0
 10
242.361
 20
3.46163
 30
0.0
 11
242.919
 21
3.17776
 31
0.0
  0
LINE
  8
0
 62
     0
 10
242.919
 20
3.17776
 30
0.0
 11
243.537
 21
3.07992
 31
0.0
  0
LINE
  8
0
 62
     0
 10
243.537
 20
3.07992
 30
0.0
 11
244.155
 21
3.17776
 31
0.0
  0
LINE
  8
0
 62
     0
 10
244.155
 20
3.17776
 30
0.0
 11
244.712
 21
3.46163
 31
0.0
  0
LINE
  8
0
 62
     0
 10
244.712
 20
3.46163
 30
0.0
 11
245.154
 21
3.90398
 31
0.0
  0
LINE
  8
0
 62
     0
 10
245.154
 20
3.90398
 30
0.0
 11
245.438
 21
4.46207
 31
0.0
  0
LINE
  8
0
 62
     0
 10
245.438
 20
4.46207
 30
0.0
 11
245.536
 21
5.07944
 31
0.0
  0
LINE
  8
0
 62
     0
 10
245.536
 20
5.07944
 30
0.0
 11
245.438
 21
5.69817
 31
0.0
  0
LINE
  8
0
 62
     0
 10
245.438
 20
5.69817
 30
0.0
 11
245.154
 21
6.25493
 31
0.0
  0
LINE
  8
0
 62
     0
 10
245.154
 20
6.25493
 30
0.0
 11
244.712
 21
6.69865
 31
0.0
  0
LINE
  8
0
 62
     0
 10
244.712
 20
6.69865
 30
0.0
 11
244.155
 21
6.98253
 31
0.0
  0
LINE
  8
0
 62
     0
 10
244.155
 20
6.98253
 30
0.0
 11
243.537
 21
7.07898
 31
0.0
  0
LINE
  8
0
 62
     0
 10
243.537
 20
7.07898
 30
0.0
 11
242.919
 21
6.98253
 31
0.0
  0
LINE
  8
0
 62
     0
 10
123.698
 20
6.98253
 30
0.0
 11
123.139
 21
6.69865
 31
0.0
  0
LINE
  8
0
 62
     0
 10
123.139
 20
6.69865
 30
0.0
 11
122.698
 21
6.25493
 31
0.0
  0
LINE
  8
0
 62
     0
 10
122.698
 20
6.25493
 30
0.0
 11
122.414
 21
5.69817
 31
0.0
  0
LINE
  8
0
 62
     0
 10
122.414
 20
5.69817
 30
0.0
 11
122.316
 21
5.07944
 31
0.0
  0
LINE
  8
0
 62
     0
 10
122.316
 20
5.07944
 30
0.0
 11
122.414
 21
4.46207
 31
0.0
  0
LINE
  8
0
 62
     0
 10
122.414
 20
4.46207
 30
0.0
 11
122.698
 21
3.90398
 31
0.0
  0
LINE
  8
0
 62
     0
 10
122.698
 20
3.90398
 30
0.0
 11
123.139
 21
3.46163
 31
0.0
  0
LINE
  8
0
 62
     0
 10
123.139
 20
3.46163
 30
0.0
 11
123.698
 21
3.17776
 31
0.0
  0
LINE
  8
0
 62
     0
 10
123.698
 20
3.17776
 30
0.0
 11
124.316
 21
3.07992
 31
0.0
  0
LINE
  8
0
 62
     0
 10
124.316
 20
3.07992
 30
0.0
 11
124.934
 21
3.17776
 31
0.0
  0
LINE
  8
0
 62
     0
 10
124.934
 20
3.17776
 30
0.0
 11
125.49
 21
3.46163
 31
0.0
  0
LINE
  8
0
 62
     0
 10
125.49
 20
3.46163
 30
0.0
 11
125.934
 21
3.90398
 31
0.0
  0
LINE
  8
0
 62
     0
 10
125.934
 20
3.90398
 30
0.0
 11
126.217
 21
4.46207
 31
0.0
  0
LINE
  8
0
 62
     0
 10
126.217
 20
4.46207
 30
0.0
 11
126.315
 21
5.07944
 31
0.0
  0
LINE
  8
0
 62
     0
 10
126.315
 20
5.07944
 30
0.0
 11
126.217
 21
5.69817
 31
0.0
  0
LINE
  8
0
 62
     0
 10
126.217
 20
5.69817
 30
0.0
 11
125.934
 21
6.25493
 31
0.0
  0
LINE
  8
0
 62
     0
 10
125.934
 20
6.25493
 30
0.0
 11
125.49
 21
6.69865
 31
0.0
  0
LINE
  8
0
 62
     0
 10
125.49
 20
6.69865
 30
0.0
 11
124.934
 21
6.98253
 31
0.0
  0
LINE
  8
0
 62
     0
 10
124.934
 20
6.98253
 30
0.0
 11
124.316
 21
7.07898
 31
0.0
  0
LINE
  8
0
 62
     0
 10
124.316
 20
7.07898
 30
0.0
 11
123.698
 21
6.98253
 31
0.0
  0
LINE
  8
0
 62
     0
 10
4.47587
 20
6.98253
 30
0.0
 11
3.91915
 21
6.69865
 31
0.0
  0
LINE
  8
0
 62
     0
 10
3.91915
 20
6.69865
 30
0.0
 11
3.47541
 21
6.25493
 31
0.0
  0
LINE
  8
0
 62
     0
 10
3.47541
 20
6.25493
 30
0.0
 11
3.19016
 21
5.69817
 31
0.0
  0
LINE
  8
0
 62
     0
 10
3.19016
 20
5.69817
 30
0.0
 11
3.0937
 21
5.07944
 31
0.0
  0
LINE
  8
0
 62
     0
 10
3.0937
 20
5.07944
 30
0.0
 11
3.19016
 21
4.46207
 31
0.0
  0
LINE
  8
0
 62
     0
 10
3.19016
 20
4.46207
 30
0.0
 11
3.47541
 21
3.90398
 31
0.0
  0
LINE
  8
0
 62
     0
 10
3.47541
 20
3.90398
 30
0.0
 11
3.91915
 21
3.46163
 31
0.0
  0
LINE
  8
0
 62
     0
 10
3.91915
 20
3.46163
 30
0.0
 11
4.47587
 21
3.17776
 31
0.0
  0
LINE
  8
0
 62
     0
 10
4.47587
 20
3.17776
 30
0.0
 11
5.09323
 21
3.07992
 31
0.0
  0
LINE
  8
0
 62
     0
 10
5.09323
 20
3.07992
 30
0.0
 11
5.71334
 21
3.17776
 31
0.0
  0
LINE
  8
0
 62
     0
 10
5.71334
 20
3.17776
 30
0.0
 11
6.27006
 21
3.46163
 31
0.0
  0
LINE
  8
0
 62
     0
 10
6.27006
 20
3.46163
 30
0.0
 11
6.71241
 21
3.90398
 31
0.0
  0
LINE
  8
0
 62
     0
 10
6.71241
 20
3.90398
 30
0.0
 11
6.99629
 21
4.46207
 31
0.0
  0
LINE
  8
0
 62
     0
 10
6.99629
 20
4.46207
 30
0.0
 11
7.09415
 21
5.07944
 31
0.0
  0
LINE
  8
0
 62
     0
 10
7.09415
 20
5.07944
 30
0.0
 11
6.99629
 21
5.69817
 31
0.0
  0
LINE
  8
0
 62
     0
 10
6.99629
 20
5.69817
 30
0.0
 11
6.71241
 21
6.25493
 31
0.0
  0
LINE
  8
0
 62
     0
 10
6.71241
 20
6.25493
 30
0.0
 11
6.27006
 21
6.69865
 31
0.0
  0
LINE
  8
0
 62
     0
 10
6.27006
 20
6.69865
 30
0.0
 11
5.71334
 21
6.98253
 31
0.0
  0
LINE
  8
0
 62
     0
 10
5.71334
 20
6.98253
 30
0.0
 11
5.09323
 21
7.07898
 31
0.0
  0
LINE
  8
0
 62
     0
 10
5.09323
 20
7.07898
 30
0.0
 11
4.47587
 21
6.98253
 31
0.0
  0
LINE
  8
0
 62
     0
 10
134.063
 20
36.6063
 30
0.0
 11
134.063
 21
31.9057
 31
0.0
  0
LINE
  8
0
 62
     0
 10
134.063
 20
31.9057
 30
0.0
 11
94.4383
 21
31.9057
 31
0.0
  0
LINE
  8
0
 62
     0
 10
94.4383
 20
31.9057
 30
0.0
 11
94.4383
 21
35.1359
 31
0.0
  0
LINE
  8
0
 62
     0
 10
94.4383
 20
35.1359
 30
0.0
 11
87.6875
 21
35.1359
 31
0.0
  0
LINE
  8
0
 62
     0
 10
87.6875
 20
35.1359
 30
0.0
 11
87.6875
 21
31.9057
 31
0.0
  0
LINE
  8
0
 62
     0
 10
87.6875
 20
31.9057
 30
0.0
 11
86.8634
 21
31.9057
 31
0.0
  0
LINE
  8
0
 62
     0
 10
86.8634
 20
31.9057
 30
0.0
 11
86.8634
 21
29.1055
 31
0.0
  0
LINE
  8
0
 62
     0
 10
86.8634
 20
29.1055
 30
0.0
 11
87.6875
 21
29.1055
 31
0.0
  0
LINE
  8
0
 62
     0
 10
87.6875
 20
29.1055
 30
0.0
 11
87.6875
 21
22.8355
 31
0.0
  0
LINE
  8
0
 62
     0
 10
87.6875
 20
22.8355
 30
0.0
 11
89.4126
 21
22.8355
 31
0.0
  0
LINE
  8
0
 62
     0
 10
89.4126
 20
22.8355
 30
0.0
 11
89.4126
 21
21.6352
 31
0.0
  0
LINE
  8
0
 62
     0
 10
89.4126
 20
21.6352
 30
0.0
 11
92.7132
 21
21.6352
 31
0.0
  0
LINE
  8
0
 62
     0
 10
92.7132
 20
21.6352
 30
0.0
 11
92.7132
 21
22.8355
 31
0.0
  0
LINE
  8
0
 62
     0
 10
92.7132
 20
22.8355
 30
0.0
 11
94.4383
 21
22.8355
 31
0.0
  0
LINE
  8
0
 62
     0
 10
94.4383
 20
22.8355
 30
0.0
 11
94.4383
 21
27.3058
 31
0.0
  0
LINE
  8
0
 62
     0
 10
94.4383
 20
27.3058
 30
0.0
 11
134.063
 21
27.3058
 31
0.0
  0
LINE
  8
0
 62
     0
 10
134.063
 20
27.3058
 30
0.0
 11
134.063
 21
22.6053
 31
0.0
  0
LINE
  8
0
 62
     0
 10
134.063
 20
22.6053
 30
0.0
 11
148.063
 21
22.6053
 31
0.0
  0
LINE
  8
0
 62
     0
 10
148.063
 20
22.6053
 30
0.0
 11
148.063
 21
27.3058
 31
0.0
  0
LINE
  8
0
 62
     0
 10
148.063
 20
27.3058
 30
0.0
 11
187.687
 21
27.3058
 31
0.0
  0
LINE
  8
0
 62
     0
 10
187.687
 20
27.3058
 30
0.0
 11
187.687
 21
22.8355
 31
0.0
  0
LINE
  8
0
 62
     0
 10
187.687
 20
22.8355
 30
0.0
 11
189.413
 21
22.8355
 31
0.0
  0
LINE
  8
0
 62
     0
 10
189.413
 20
22.8355
 30
0.0
 11
189.413
 21
21.6352
 31
0.0
  0
LINE
  8
0
 62
     0
 10
189.413
 20
21.6352
 30
0.0
 11
192.713
 21
21.6352
 31
0.0
  0
LINE
  8
0
 62
     0
 10
192.713
 20
21.6352
 30
0.0
 11
192.713
 21
22.8355
 31
0.0
  0
LINE
  8
0
 62
     0
 10
192.713
 20
22.8355
 30
0.0
 11
194.438
 21
22.8355
 31
0.0
  0
LINE
  8
0
 62
     0
 10
194.438
 20
22.8355
 30
0.0
 11
194.438
 21
29.1055
 31
0.0
  0
LINE
  8
0
 62
     0
 10
194.438
 20
29.1055
 30
0.0
 11
195.263
 21
29.1055
 31
0.0
  0
LINE
  8
0
 62
     0
 10
195.263
 20
29.1055
 30
0.0
 11
195.263
 21
31.9057
 31
0.0
  0
LINE
  8
0
 62
     0
 10
195.263
 20
31.9057
 30
0.0
 11
194.438
 21
31.9057
 31
0.0
  0
LINE
  8
0
 62
     0
 10
194.438
 20
31.9057
 30
0.0
 11
194.438
 21
35.1359
 31
0.0
  0
LINE
  8
0
 62
     0
 10
194.438
 20
35.1359
 30
0.0
 11
187.687
 21
35.1359
 31
0.0
  0
LINE
  8
0
 62
     0
 10
187.687
 20
35.1359
 30
0.0
 11
187.687
 21
31.9057
 31
0.0
  0
LINE
  8
0
 62
     0
 10
187.687
 20
31.9057
 30
0.0
 11
148.063
 21
31.9057
 31
0.0
  0
LINE
  8
0
 62
     0
 10
148.063
 20
31.9057
 30
0.0
 11
148.063
 21
36.6063
 31
0.0
  0
LINE
  8
0
 62
     0
 10
148.063
 20
36.6063
 30
0.0
 11
134.063
 21
36.6063
 31
0.0
  0
LINE
  8
0
 62
     0
 10
15.0013
 20
36.6063
 30
0.0
 11
29.0008
 21
36.6063
 31
0.0
  0
LINE
  8
0
 62
     0
 10
29.0008
 20
36.6063
 30
0.0
 11
29.0008
 21
22.6053
 31
0.0
  0
LINE
  8
0
 62
     0
 10
29.0008
 20
22.6053
 30
0.0
 11
15.0013
 21
22.6053
 31
0.0
  0
LINE
  8
0
 62
     0
 10
15.0013
 20
22.6053
 30
0.0
 11
15.0013
 21
36.6063
 31
0.0
  0
LINE
  8
0
 62
     0
 10
38.8126
 20
36.6063
 30
0.0
 11
52.8133
 21
36.6063
 31
0.0
  0
LINE
  8
0
 62
     0
 10
52.8133
 20
36.6063
 30
0.0
 11
52.8133
 21
22.6053
 31
0.0
  0
LINE
  8
0
 62
     0
 10
52.8133
 20
22.6053
 30
0.0
 11
38.8126
 21
22.6053
 31
0.0
  0
LINE
  8
0
 62
     0
 10
38.8126
 20
22.6053
 30
0.0
 11
38.8126
 21
36.6063
 31
0.0
  0
LINE
  8
0
 62
     0
 10
62.6262
 20
36.6063
 30
0.0
 11
76.6258
 21
36.6063
 31
0.0
  0
LINE
  8
0
 62
     0
 10
76.6258
 20
36.6063
 30
0.0
 11
76.6258
 21
22.6053
 31
0.0
  0
LINE
  8
0
 62
     0
 10
76.6258
 20
22.6053
 30
0.0
 11
62.6262
 21
22.6053
 31
0.0
  0
LINE
  8
0
 62
     0
 10
62.6262
 20
22.6053
 30
0.0
 11
62.6262
 21
36.6063
 31
0.0
  0
LINE
  8
0
 62
     0
 10
205.501
 20
36.6063
 30
0.0
 11
219.501
 21
36.6063
 31
0.0
  0
LINE
  8
0
 62
     0
 10
219.501
 20
36.6063
 30
0.0
 11
219.501
 21
22.6053
 31
0.0
  0
LINE
  8
0
 62
     0
 10
219.501
 20
22.6053
 30
0.0
 11
205.501
 21
22.6053
 31
0.0
  0
LINE
  8
0
 62
     0
 10
205.501
 20
22.6053
 30
0.0
 11
205.501
 21
36.6063
 31
0.0
  0
LINE
  8
0
 62
     0
 10
229.313
 20
36.6063
 30
0.0
 11
243.313
 21
36.6063
 31
0.0
  0
LINE
  8
0
 62
     0
 10
243.313
 20
36.6063
 30
0.0
 11
243.313
 21
22.6053
 31
0.0
  0
LINE
  8
0
 62
     0
 10
243.313
 20
22.6053
 30
0.0
 11
229.313
 21
22.6053
 31
0.0
  0
LINE
  8
0
 62
     0
 10
229.313
 20
22.6053
 30
0.0
 11
229.313
 21
36.6063
 31
0.0
  0
LINE
  8
0
 62
     0
 10
253.126
 20
36.6063
 30
0.0
 11
267.126
 21
36.6063
 31
0.0
  0
LINE
  8
0
 62
     0
 10
267.126
 20
36.6063
 30
0.0
 11
267.126
 21
22.6053
 31
0.0
  0
LINE
  8
0
 62
     0
 10
267.126
 20
22.6053
 30
0.0
 11
253.126
 21
22.6053
 31
0.0
  0
LINE
  8
0
 62
     0
 10
253.126
 20
22.6053
 30
0.0
 11
253.126
 21
36.6063
 31
0.0
  0
LINE
  8
0
 62
     0
 10
276.938
 20
36.6063
 30
0.0
 11
290.938
 21
36.6063
 31
0.0
  0
LINE
  8
0
 62
     0
 10
290.938
 20
36.6063
 30
0.0
 11
290.938
 21
22.6053
 31
0.0
  0
LINE
  8
0
 62
     0
 10
290.938
 20
22.6053
 30
0.0
 11
276.938
 21
22.6053
 31
0.0
  0
LINE
  8
0
 62
     0
 10
276.938
 20
22.6053
 30
0.0
 11
276.938
 21
36.6063
 31
0.0
  0
LINE
  8
0
 62
     0
 10
303.131
 20
36.6063
 30
0.0
 11
317.132
 21
36.6063
 31
0.0
  0
LINE
  8
0
 62
     0
 10
317.132
 20
36.6063
 30
0.0
 11
317.132
 21
22.6053
 31
0.0
  0
LINE
  8
0
 62
     0
 10
317.132
 20
22.6053
 30
0.0
 11
303.131
 21
22.6053
 31
0.0
  0
LINE
  8
0
 62
     0
 10
303.131
 20
22.6053
 30
0.0
 11
303.131
 21
36.6063
 31
0.0
  0
LINE
  8
0
 62
     0
 10
322.181
 20
36.6063
 30
0.0
 11
336.182
 21
36.6063
 31
0.0
  0
LINE
  8
0
 62
     0
 10
336.182
 20
36.6063
 30
0.0
 11
336.182
 21
22.6053
 31
0.0
  0
LINE
  8
0
 62
     0
 10
336.182
 20
22.6053
 30
0.0
 11
322.181
 21
22.6053
 31
0.0
  0
LINE
  8
0
 62
     0
 10
322.181
 20
22.6053
 30
0.0
 11
322.181
 21
36.6063
 31
0.0
  0
LINE
  8
0
 62
     0
 10
341.231
 20
36.6063
 30
0.0
 11
355.233
 21
36.6063
 31
0.0
  0
LINE
  8
0
 62
     0
 10
355.233
 20
36.6063
 30
0.0
 11
355.233
 21
22.6053
 31
0.0
  0
LINE
  8
0
 62
     0
 10
355.233
 20
22.6053
 30
0.0
 11
341.231
 21
22.6053
 31
0.0
  0
LINE
  8
0
 62
     0
 10
341.231
 20
22.6053
 30
0.0
 11
341.231
 21
36.6063
 31
0.0
  0
LINE
  8
0
 62
     0
 10
24.5263
 20
55.6563
 30
0.0
 11
24.5263
 21
50.9556
 31
0.0
  0
LINE
  8
0
 62
     0
 10
24.5263
 20
50.9556
 30
0.0
 11
23.0008
 21
50.9556
 31
0.0
  0
LINE
  8
0
 62
     0
 10
23.0008
 20
50.9556
 30
0.0
 11
23.0008
 21
54.186
 31
0.0
  0
LINE
  8
0
 62
     0
 10
23.0008
 20
54.186
 30
0.0
 11
16.2512
 21
54.186
 31
0.0
  0
LINE
  8
0
 62
     0
 10
16.2512
 20
54.186
 30
0.0
 11
16.2512
 21
50.9556
 31
0.0
  0
LINE
  8
0
 62
     0
 10
16.2512
 20
50.9556
 30
0.0
 11
15.4258
 21
50.9556
 31
0.0
  0
LINE
  8
0
 62
     0
 10
15.4258
 20
50.9556
 30
0.0
 11
15.4258
 21
48.1556
 31
0.0
  0
LINE
  8
0
 62
     0
 10
15.4258
 20
48.1556
 30
0.0
 11
16.2512
 21
48.1556
 31
0.0
  0
LINE
  8
0
 62
     0
 10
16.2512
 20
48.1556
 30
0.0
 11
16.2512
 21
41.8853
 31
0.0
  0
LINE
  8
0
 62
     0
 10
16.2512
 20
41.8853
 30
0.0
 11
17.9751
 21
41.8853
 31
0.0
  0
LINE
  8
0
 62
     0
 10
17.9751
 20
41.8853
 30
0.0
 11
17.9751
 21
40.6852
 31
0.0
  0
LINE
  8
0
 62
     0
 10
17.9751
 20
40.6852
 30
0.0
 11
21.2755
 21
40.6852
 31
0.0
  0
LINE
  8
0
 62
     0
 10
21.2755
 20
40.6852
 30
0.0
 11
21.2755
 21
41.8853
 31
0.0
  0
LINE
  8
0
 62
     0
 10
21.2755
 20
41.8853
 30
0.0
 11
23.0008
 21
41.8853
 31
0.0
  0
LINE
  8
0
 62
     0
 10
23.0008
 20
41.8853
 30
0.0
 11
23.0008
 21
46.3557
 31
0.0
  0
LINE
  8
0
 62
     0
 10
23.0008
 20
46.3557
 30
0.0
 11
24.5263
 21
46.3557
 31
0.0
  0
LINE
  8
0
 62
     0
 10
24.5263
 20
46.3557
 30
0.0
 11
24.5263
 21
41.6553
 31
0.0
  0
LINE
  8
0
 62
     0
 10
24.5263
 20
41.6553
 30
0.0
 11
38.5258
 21
41.6553
 31
0.0
  0
LINE
  8
0
 62
     0
 10
38.5258
 20
41.6553
 30
0.0
 11
38.5258
 21
46.3557
 31
0.0
  0
LINE
  8
0
 62
     0
 10
38.5258
 20
46.3557
 30
0.0
 11
40.0512
 21
46.3557
 31
0.0
  0
LINE
  8
0
 62
     0
 10
40.0512
 20
46.3557
 30
0.0
 11
40.0512
 21
41.8853
 31
0.0
  0
LINE
  8
0
 62
     0
 10
40.0512
 20
41.8853
 30
0.0
 11
41.7752
 21
41.8853
 31
0.0
  0
LINE
  8
0
 62
     0
 10
41.7752
 20
41.8853
 30
0.0
 11
41.7752
 21
40.6852
 31
0.0
  0
LINE
  8
0
 62
     0
 10
41.7752
 20
40.6852
 30
0.0
 11
45.0755
 21
40.6852
 31
0.0
  0
LINE
  8
0
 62
     0
 10
45.0755
 20
40.6852
 30
0.0
 11
45.0755
 21
41.8853
 31
0.0
  0
LINE
  8
0
 62
     0
 10
45.0755
 20
41.8853
 30
0.0
 11
46.8009
 21
41.8853
 31
0.0
  0
LINE
  8
0
 62
     0
 10
46.8009
 20
41.8853
 30
0.0
 11
46.8009
 21
48.1556
 31
0.0
  0
LINE
  8
0
 62
     0
 10
46.8009
 20
48.1556
 30
0.0
 11
47.6264
 21
48.1556
 31
0.0
  0
LINE
  8
0
 62
     0
 10
47.6264
 20
48.1556
 30
0.0
 11
47.6264
 21
50.9556
 31
0.0
  0
LINE
  8
0
 62
     0
 10
47.6264
 20
50.9556
 30
0.0
 11
46.8009
 21
50.9556
 31
0.0
  0
LINE
  8
0
 62
     0
 10
46.8009
 20
50.9556
 30
0.0
 11
46.8009
 21
54.186
 31
0.0
  0
LINE
  8
0
 62
     0
 10
46.8009
 20
54.186
 30
0.0
 11
40.0512
 21
54.186
 31
0.0
  0
LINE
  8
0
 62
     0
 10
40.0512
 20
54.186
 30
0.0
 11
40.0512
 21
50.9556
 31
0.0
  0
LINE
  8
0
 62
     0
 10
40.0512
 20
50.9556
 30
0.0
 11
38.5258
 21
50.9556
 31
0.0
  0
LINE
  8
0
 62
     0
 10
38.5258
 20
50.9556
 30
0.0
 11
38.5258
 21
55.6563
 31
0.0
  0
LINE
  8
0
 62
     0
 10
38.5258
 20
55.6563
 30
0.0
 11
24.5263
 21
55.6563
 31
0.0
  0
LINE
  8
0
 62
     0
 10
262.651
 20
55.6563
 30
0.0
 11
262.651
 21
50.9556
 31
0.0
  0
LINE
  8
0
 62
     0
 10
262.651
 20
50.9556
 30
0.0
 11
261.126
 21
50.9556
 31
0.0
  0
LINE
  8
0
 62
     0
 10
261.126
 20
50.9556
 30
0.0
 11
261.126
 21
54.186
 31
0.0
  0
LINE
  8
0
 62
     0
 10
261.126
 20
54.186
 30
0.0
 11
254.376
 21
54.186
 31
0.0
  0
LINE
  8
0
 62
     0
 10
254.376
 20
54.186
 30
0.0
 11
254.376
 21
50.9556
 31
0.0
  0
LINE
  8
0
 62
     0
 10
254.376
 20
50.9556
 30
0.0
 11
253.551
 21
50.9556
 31
0.0
  0
LINE
  8
0
 62
     0
 10
253.551
 20
50.9556
 30
0.0
 11
253.551
 21
48.1556
 31
0.0
  0
LINE
  8
0
 62
     0
 10
253.551
 20
48.1556
 30
0.0
 11
254.376
 21
48.1556
 31
0.0
  0
LINE
  8
0
 62
     0
 10
254.376
 20
48.1556
 30
0.0
 11
254.376
 21
41.8853
 31
0.0
  0
LINE
  8
0
 62
     0
 10
254.376
 20
41.8853
 30
0.0
 11
256.1
 21
41.8853
 31
0.0
  0
LINE
  8
0
 62
     0
 10
256.1
 20
41.8853
 30
0.0
 11
256.1
 21
40.6852
 31
0.0
  0
LINE
  8
0
 62
     0
 10
256.1
 20
40.6852
 30
0.0
 11
259.401
 21
40.6852
 31
0.0
  0
LINE
  8
0
 62
     0
 10
259.401
 20
40.6852
 30
0.0
 11
259.401
 21
41.8853
 31
0.0
  0
LINE
  8
0
 62
     0
 10
259.401
 20
41.8853
 30
0.0
 11
261.126
 21
41.8853
 31
0.0
  0
LINE
  8
0
 62
     0
 10
261.126
 20
41.8853
 30
0.0
 11
261.126
 21
46.3557
 31
0.0
  0
LINE
  8
0
 62
     0
 10
261.126
 20
46.3557
 30
0.0
 11
262.651
 21
46.3557
 31
0.0
  0
LINE
  8
0
 62
     0
 10
262.651
 20
46.3557
 30
0.0
 11
262.651
 21
41.6553
 31
0.0
  0
LINE
  8
0
 62
     0
 10
262.651
 20
41.6553
 30
0.0
 11
276.651
 21
41.6553
 31
0.0
  0
LINE
  8
0
 62
     0
 10
276.651
 20
41.6553
 30
0.0
 11
276.651
 21
46.3557
 31
0.0
  0
LINE
  8
0
 62
     0
 10
276.651
 20
46.3557
 30
0.0
 11
278.176
 21
46.3557
 31
0.0
  0
LINE
  8
0
 62
     0
 10
278.176
 20
46.3557
 30
0.0
 11
278.176
 21
41.8853
 31
0.0
  0
LINE
  8
0
 62
     0
 10
278.176
 20
41.8853
 30
0.0
 11
279.9
 21
41.8853
 31
0.0
  0
LINE
  8
0
 62
     0
 10
279.9
 20
41.8853
 30
0.0
 11
279.9
 21
40.6852
 31
0.0
  0
LINE
  8
0
 62
     0
 10
279.9
 20
40.6852
 30
0.0
 11
283.2
 21
40.6852
 31
0.0
  0
LINE
  8
0
 62
     0
 10
283.2
 20
40.6852
 30
0.0
 11
283.2
 21
41.8853
 31
0.0
  0
LINE
  8
0
 62
     0
 10
283.2
 20
41.8853
 30
0.0
 11
284.926
 21
41.8853
 31
0.0
  0
LINE
  8
0
 62
     0
 10
284.926
 20
41.8853
 30
0.0
 11
284.926
 21
48.1556
 31
0.0
  0
LINE
  8
0
 62
     0
 10
284.926
 20
48.1556
 30
0.0
 11
285.751
 21
48.1556
 31
0.0
  0
LINE
  8
0
 62
     0
 10
285.751
 20
48.1556
 30
0.0
 11
285.751
 21
50.9556
 31
0.0
  0
LINE
  8
0
 62
     0
 10
285.751
 20
50.9556
 30
0.0
 11
284.926
 21
50.9556
 31
0.0
  0
LINE
  8
0
 62
     0
 10
284.926
 20
50.9556
 30
0.0
 11
284.926
 21
54.186
 31
0.0
  0
LINE
  8
0
 62
     0
 10
284.926
 20
54.186
 30
0.0
 11
278.176
 21
54.186
 31
0.0
  0
LINE
  8
0
 62
     0
 10
278.176
 20
54.186
 30
0.0
 11
278.176
 21
50.9556
 31
0.0
  0
LINE
  8
0
 62
     0
 10
278.176
 20
50.9556
 30
0.0
 11
276.651
 21
50.9556
 31
0.0
  0
LINE
  8
0
 62
     0
 10
276.651
 20
50.9556
 30
0.0
 11
276.651
 21
55.6563
 31
0.0
  0
LINE
  8
0
 62
     0
 10
276.651
 20
55.6563
 30
0.0
 11
262.651
 21
55.6563
 31
0.0
  0
LINE
  8
0
 62
     0
 10
55.4814
 20
55.6563
 30
0.0
 11
69.4821
 21
55.6563
 31
0.0
  0
LINE
  8
0
 62
     0
 10
69.4821
 20
55.6563
 30
0.0
 11
69.4821
 21
41.6553
 31
0.0
  0
LINE
  8
0
 62
     0
 10
69.4821
 20
41.6553
 30
0.0
 11
55.4814
 21
41.6553
 31
0.0
  0
LINE
  8
0
 62
     0
 10
55.4814
 20
41.6553
 30
0.0
 11
55.4814
 21
55.6563
 31
0.0
  0
LINE
  8
0
 62
     0
 10
74.5314
 20
55.6563
 30
0.0
 11
88.5321
 21
55.6563
 31
0.0
  0
LINE
  8
0
 62
     0
 10
88.5321
 20
55.6563
 30
0.0
 11
88.5321
 21
41.6553
 31
0.0
  0
LINE
  8
0
 62
     0
 10
88.5321
 20
41.6553
 30
0.0
 11
74.5314
 21
41.6553
 31
0.0
  0
LINE
  8
0
 62
     0
 10
74.5314
 20
41.6553
 30
0.0
 11
74.5314
 21
55.6563
 31
0.0
  0
LINE
  8
0
 62
     0
 10
93.5814
 20
55.6563
 30
0.0
 11
107.582
 21
55.6563
 31
0.0
  0
LINE
  8
0
 62
     0
 10
107.582
 20
55.6563
 30
0.0
 11
107.582
 21
41.6553
 31
0.0
  0
LINE
  8
0
 62
     0
 10
107.582
 20
41.6553
 30
0.0
 11
93.5814
 21
41.6553
 31
0.0
  0
LINE
  8
0
 62
     0
 10
93.5814
 20
41.6553
 30
0.0
 11
93.5814
 21
55.6563
 31
0.0
  0
LINE
  8
0
 62
     0
 10
112.631
 20
55.6563
 30
0.0
 11
126.632
 21
55.6563
 31
0.0
  0
LINE
  8
0
 62
     0
 10
126.632
 20
55.6563
 30
0.0
 11
126.632
 21
41.6553
 31
0.0
  0
LINE
  8
0
 62
     0
 10
126.632
 20
41.6553
 30
0.0
 11
112.631
 21
41.6553
 31
0.0
  0
LINE
  8
0
 62
     0
 10
112.631
 20
41.6553
 30
0.0
 11
112.631
 21
55.6563
 31
0.0
  0
LINE
  8
0
 62
     0
 10
131.681
 20
55.6563
 30
0.0
 11
145.682
 21
55.6563
 31
0.0
  0
LINE
  8
0
 62
     0
 10
145.682
 20
55.6563
 30
0.0
 11
145.682
 21
41.6553
 31
0.0
  0
LINE
  8
0
 62
     0
 10
145.682
 20
41.6553
 30
0.0
 11
131.681
 21
41.6553
 31
0.0
  0
LINE
  8
0
 62
     0
 10
131.681
 20
41.6553
 30
0.0
 11
131.681
 21
55.6563
 31
0.0
  0
LINE
  8
0
 62
     0
 10
150.731
 20
55.6563
 30
0.0
 11
164.732
 21
55.6563
 31
0.0
  0
LINE
  8
0
 62
     0
 10
164.732
 20
55.6563
 30
0.0
 11
164.732
 21
41.6553
 31
0.0
  0
LINE
  8
0
 62
     0
 10
164.732
 20
41.6553
 30
0.0
 11
150.731
 21
41.6553
 31
0.0
  0
LINE
  8
0
 62
     0
 10
150.731
 20
41.6553
 30
0.0
 11
150.731
 21
55.6563
 31
0.0
  0
LINE
  8
0
 62
     0
 10
169.781
 20
55.6563
 30
0.0
 11
183.782
 21
55.6563
 31
0.0
  0
LINE
  8
0
 62
     0
 10
183.782
 20
55.6563
 30
0.0
 11
183.782
 21
41.6553
 31
0.0
  0
LINE
  8
0
 62
     0
 10
183.782
 20
41.6553
 30
0.0
 11
169.781
 21
41.6553
 31
0.0
  0
LINE
  8
0
 62
     0
 10
169.781
 20
41.6553
 30
0.0
 11
169.781
 21
55.6563
 31
0.0
  0
LINE
  8
0
 62
     0
 10
188.831
 20
55.6563
 30
0.0
 11
202.832
 21
55.6563
 31
0.0
  0
LINE
  8
0
 62
     0
 10
202.832
 20
55.6563
 30
0.0
 11
202.832
 21
41.6553
 31
0.0
  0
LINE
  8
0
 62
     0
 10
202.832
 20
41.6553
 30
0.0
 11
188.831
 21
41.6553
 31
0.0
  0
LINE
  8
0
 62
     0
 10
188.831
 20
41.6553
 30
0.0
 11
188.831
 21
55.6563
 31
0.0
  0
LINE
  8
0
 62
     0
 10
207.881
 20
55.6563
 30
0.0
 11
221.882
 21
55.6563
 31
0.0
  0
LINE
  8
0
 62
     0
 10
221.882
 20
55.6563
 30
0.0
 11
221.882
 21
41.6553
 31
0.0
  0
LINE
  8
0
 62
     0
 10
221.882
 20
41.6553
 30
0.0
 11
207.881
 21
41.6553
 31
0.0
  0
LINE
  8
0
 62
     0
 10
207.881
 20
41.6553
 30
0.0
 11
207.881
 21
55.6563
 31
0.0
  0
LINE
  8
0
 62
     0
 10
226.931
 20
55.6563
 30
0.0
 11
240.932
 21
55.6563
 31
0.0
  0
LINE
  8
0
 62
     0
 10
240.932
 20
55.6563
 30
0.0
 11
240.932
 21
41.6553
 31
0.0
  0
LINE
  8
0
 62
     0
 10
240.932
 20
41.6553
 30
0.0
 11
226.931
 21
41.6553
 31
0.0
  0
LINE
  8
0
 62
     0
 10
226.931
 20
41.6553
 30
0.0
 11
226.931
 21
55.6563
 31
0.0
  0
LINE
  8
0
 62
     0
 10
322.181
 20
55.6563
 30
0.0
 11
336.182
 21
55.6563
 31
0.0
  0
LINE
  8
0
 62
     0
 10
336.182
 20
55.6563
 30
0.0
 11
336.182
 21
41.6553
 31
0.0
  0
LINE
  8
0
 62
     0
 10
336.182
 20
41.6553
 30
0.0
 11
322.181
 21
41.6553
 31
0.0
  0
LINE
  8
0
 62
     0
 10
322.181
 20
41.6553
 30
0.0
 11
322.181
 21
55.6563
 31
0.0
  0
LINE
  8
0
 62
     0
 10
19.7624
 20
74.7063
 30
0.0
 11
33.7633
 21
74.7063
 31
0.0
  0
LINE
  8
0
 62
     0
 10
33.7633
 20
74.7063
 30
0.0
 11
33.7633
 21
60.7053
 31
0.0
  0
LINE
  8
0
 62
     0
 10
33.7633
 20
60.7053
 30
0.0
 11
19.7624
 21
60.7053
 31
0.0
  0
LINE
  8
0
 62
     0
 10
19.7624
 20
60.7053
 30
0.0
 11
19.7624
 21
74.7063
 31
0.0
  0
LINE
  8
0
 62
     0
 10
45.9564
 20
74.7063
 30
0.0
 11
59.9556
 21
74.7063
 31
0.0
  0
LINE
  8
0
 62
     0
 10
59.9556
 20
74.7063
 30
0.0
 11
59.9556
 21
60.7053
 31
0.0
  0
LINE
  8
0
 62
     0
 10
59.9556
 20
60.7053
 30
0.0
 11
45.9564
 21
60.7053
 31
0.0
  0
LINE
  8
0
 62
     0
 10
45.9564
 20
60.7053
 30
0.0
 11
45.9564
 21
74.7063
 31
0.0
  0
LINE
  8
0
 62
     0
 10
65.0064
 20
74.7063
 30
0.0
 11
79.0071
 21
74.7063
 31
0.0
  0
LINE
  8
0
 62
     0
 10
79.0071
 20
74.7063
 30
0.0
 11
79.0071
 21
60.7053
 31
0.0
  0
LINE
  8
0
 62
     0
 10
79.0071
 20
60.7053
 30
0.0
 11
65.0064
 21
60.7053
 31
0.0
  0
LINE
  8
0
 62
     0
 10
65.0064
 20
60.7053
 30
0.0
 11
65.0064
 21
74.7063
 31
0.0
  0
LINE
  8
0
 62
     0
 10
84.0564
 20
74.7063
 30
0.0
 11
98.0571
 21
74.7063
 31
0.0
  0
LINE
  8
0
 62
     0
 10
98.0571
 20
74.7063
 30
0.0
 11
98.0571
 21
60.7053
 31
0.0
  0
LINE
  8
0
 62
     0
 10
98.0571
 20
60.7053
 30
0.0
 11
84.0564
 21
60.7053
 31
0.0
  0
LINE
  8
0
 62
     0
 10
84.0564
 20
60.7053
 30
0.0
 11
84.0564
 21
74.7063
 31
0.0
  0
LINE
  8
0
 62
     0
 10
103.106
 20
74.7063
 30
0.0
 11
117.107
 21
74.7063
 31
0.0
  0
LINE
  8
0
 62
     0
 10
117.107
 20
74.7063
 30
0.0
 11
117.107
 21
60.7053
 31
0.0
  0
LINE
  8
0
 62
     0
 10
117.107
 20
60.7053
 30
0.0
 11
103.106
 21
60.7053
 31
0.0
  0
LINE
  8
0
 62
     0
 10
103.106
 20
60.7053
 30
0.0
 11
103.106
 21
74.7063
 31
0.0
  0
LINE
  8
0
 62
     0
 10
122.156
 20
74.7063
 30
0.0
 11
136.157
 21
74.7063
 31
0.0
  0
LINE
  8
0
 62
     0
 10
136.157
 20
74.7063
 30
0.0
 11
136.157
 21
60.7053
 31
0.0
  0
LINE
  8
0
 62
     0
 10
136.157
 20
60.7053
 30
0.0
 11
122.156
 21
60.7053
 31
0.0
  0
LINE
  8
0
 62
     0
 10
122.156
 20
60.7053
 30
0.0
 11
122.156
 21
74.7063
 31
0.0
  0
LINE
  8
0
 62
     0
 10
141.206
 20
74.7063
 30
0.0
 11
155.207
 21
74.7063
 31
0.0
  0
LINE
  8
0
 62
     0
 10
155.207
 20
74.7063
 30
0.0
 11
155.207
 21
60.7053
 31
0.0
  0
LINE
  8
0
 62
     0
 10
155.207
 20
60.7053
 30
0.0
 11
141.206
 21
60.7053
 31
0.0
  0
LINE
  8
0
 62
     0
 10
141.206
 20
60.7053
 30
0.0
 11
141.206
 21
74.7063
 31
0.0
  0
LINE
  8
0
 62
     0
 10
160.256
 20
74.7063
 30
0.0
 11
174.257
 21
74.7063
 31
0.0
  0
LINE
  8
0
 62
     0
 10
174.257
 20
74.7063
 30
0.0
 11
174.257
 21
60.7053
 31
0.0
  0
LINE
  8
0
 62
     0
 10
174.257
 20
60.7053
 30
0.0
 11
160.256
 21
60.7053
 31
0.0
  0
LINE
  8
0
 62
     0
 10
160.256
 20
60.7053
 30
0.0
 11
160.256
 21
74.7063
 31
0.0
  0
LINE
  8
0
 62
     0
 10
179.306
 20
74.7063
 30
0.0
 11
193.307
 21
74.7063
 31
0.0
  0
LINE
  8
0
 62
     0
 10
193.307
 20
74.7063
 30
0.0
 11
193.307
 21
60.7053
 31
0.0
  0
LINE
  8
0
 62
     0
 10
193.307
 20
60.7053
 30
0.0
 11
179.306
 21
60.7053
 31
0.0
  0
LINE
  8
0
 62
     0
 10
179.306
 20
60.7053
 30
0.0
 11
179.306
 21
74.7063
 31
0.0
  0
LINE
  8
0
 62
     0
 10
198.356
 20
74.7063
 30
0.0
 11
212.357
 21
74.7063
 31
0.0
  0
LINE
  8
0
 62
     0
 10
212.357
 20
74.7063
 30
0.0
 11
212.357
 21
60.7053
 31
0.0
  0
LINE
  8
0
 62
     0
 10
212.357
 20
60.7053
 30
0.0
 11
198.356
 21
60.7053
 31
0.0
  0
LINE
  8
0
 62
     0
 10
198.356
 20
60.7053
 30
0.0
 11
198.356
 21
74.7063
 31
0.0
  0
LINE
  8
0
 62
     0
 10
217.406
 20
74.7063
 30
0.0
 11
231.407
 21
74.7063
 31
0.0
  0
LINE
  8
0
 62
     0
 10
231.407
 20
74.7063
 30
0.0
 11
231.407
 21
60.7053
 31
0.0
  0
LINE
  8
0
 62
     0
 10
231.407
 20
60.7053
 30
0.0
 11
217.406
 21
60.7053
 31
0.0
  0
LINE
  8
0
 62
     0
 10
217.406
 20
60.7053
 30
0.0
 11
217.406
 21
74.7063
 31
0.0
  0
LINE
  8
0
 62
     0
 10
236.456
 20
74.7063
 30
0.0
 11
250.457
 21
74.7063
 31
0.0
  0
LINE
  8
0
 62
     0
 10
250.457
 20
74.7063
 30
0.0
 11
250.457
 21
60.7053
 31
0.0
  0
LINE
  8
0
 62
     0
 10
250.457
 20
60.7053
 30
0.0
 11
236.456
 21
60.7053
 31
0.0
  0
LINE
  8
0
 62
     0
 10
236.456
 20
60.7053
 30
0.0
 11
236.456
 21
74.7063
 31
0.0
  0
LINE
  8
0
 62
     0
 10
255.506
 20
74.7063
 30
0.0
 11
269.507
 21
74.7063
 31
0.0
  0
LINE
  8
0
 62
     0
 10
269.507
 20
74.7063
 30
0.0
 11
269.507
 21
60.7053
 31
0.0
  0
LINE
  8
0
 62
     0
 10
269.507
 20
60.7053
 30
0.0
 11
255.506
 21
60.7053
 31
0.0
  0
LINE
  8
0
 62
     0
 10
255.506
 20
60.7053
 30
0.0
 11
255.506
 21
74.7063
 31
0.0
  0
LINE
  8
0
 62
     0
 10
283.438
 20
93.3305
 30
0.0
 11
283.438
 21
92.505
 31
0.0
  0
LINE
  8
0
 62
     0
 10
283.438
 20
92.505
 30
0.0
 11
277.168
 21
92.505
 31
0.0
  0
LINE
  8
0
 62
     0
 10
277.168
 20
92.505
 30
0.0
 11
277.168
 21
90.781
 31
0.0
  0
LINE
  8
0
 62
     0
 10
277.168
 20
90.781
 30
0.0
 11
275.967
 21
90.781
 31
0.0
  0
LINE
  8
0
 62
     0
 10
275.967
 20
90.781
 30
0.0
 11
275.967
 21
87.4808
 31
0.0
  0
LINE
  8
0
 62
     0
 10
275.967
 20
87.4808
 30
0.0
 11
277.168
 21
87.4808
 31
0.0
  0
LINE
  8
0
 62
     0
 10
277.168
 20
87.4808
 30
0.0
 11
277.168
 21
85.7553
 31
0.0
  0
LINE
  8
0
 62
     0
 10
277.168
 20
85.7553
 30
0.0
 11
281.638
 21
85.7553
 31
0.0
  0
LINE
  8
0
 62
     0
 10
281.638
 20
85.7553
 30
0.0
 11
281.638
 21
84.2313
 31
0.0
  0
LINE
  8
0
 62
     0
 10
281.638
 20
84.2313
 30
0.0
 11
276.938
 21
84.2313
 31
0.0
  0
LINE
  8
0
 62
     0
 10
276.938
 20
84.2313
 30
0.0
 11
276.938
 21
70.2303
 31
0.0
  0
LINE
  8
0
 62
     0
 10
276.938
 20
70.2303
 30
0.0
 11
281.638
 21
70.2303
 31
0.0
  0
LINE
  8
0
 62
     0
 10
281.638
 20
70.2303
 30
0.0
 11
281.638
 21
68.7063
 31
0.0
  0
LINE
  8
0
 62
     0
 10
281.638
 20
68.7063
 30
0.0
 11
277.168
 21
68.7063
 31
0.0
  0
LINE
  8
0
 62
     0
 10
277.168
 20
68.7063
 30
0.0
 11
277.168
 21
66.9809
 31
0.0
  0
LINE
  8
0
 62
     0
 10
277.168
 20
66.9809
 30
0.0
 11
275.967
 21
66.9809
 31
0.0
  0
LINE
  8
0
 62
     0
 10
275.967
 20
66.9809
 30
0.0
 11
275.967
 21
63.6806
 31
0.0
  0
LINE
  8
0
 62
     0
 10
275.967
 20
63.6806
 30
0.0
 11
277.168
 21
63.6806
 31
0.0
  0
LINE
  8
0
 62
     0
 10
277.168
 20
63.6806
 30
0.0
 11
277.168
 21
61.9552
 31
0.0
  0
LINE
  8
0
 62
     0
 10
277.168
 20
61.9552
 30
0.0
 11
283.438
 21
61.9552
 31
0.0
  0
LINE
  8
0
 62
     0
 10
283.438
 20
61.9552
 30
0.0
 11
283.438
 21
61.1311
 31
0.0
  0
LINE
  8
0
 62
     0
 10
283.438
 20
61.1311
 30
0.0
 11
286.238
 21
61.1311
 31
0.0
  0
LINE
  8
0
 62
     0
 10
286.238
 20
61.1311
 30
0.0
 11
286.238
 21
61.9552
 31
0.0
  0
LINE
  8
0
 62
     0
 10
286.238
 20
61.9552
 30
0.0
 11
289.468
 21
61.9552
 31
0.0
  0
LINE
  8
0
 62
     0
 10
289.468
 20
61.9552
 30
0.0
 11
289.468
 21
68.7063
 31
0.0
  0
LINE
  8
0
 62
     0
 10
289.468
 20
68.7063
 30
0.0
 11
286.238
 21
68.7063
 31
0.0
  0
LINE
  8
0
 62
     0
 10
286.238
 20
68.7063
 30
0.0
 11
286.238
 21
70.2303
 31
0.0
  0
LINE
  8
0
 62
     0
 10
286.238
 20
70.2303
 30
0.0
 11
290.938
 21
70.2303
 31
0.0
  0
LINE
  8
0
 62
     0
 10
290.938
 20
70.2303
 30
0.0
 11
290.938
 21
84.2313
 31
0.0
  0
LINE
  8
0
 62
     0
 10
290.938
 20
84.2313
 30
0.0
 11
286.238
 21
84.2313
 31
0.0
  0
LINE
  8
0
 62
     0
 10
286.238
 20
84.2313
 30
0.0
 11
286.238
 21
85.7553
 31
0.0
  0
LINE
  8
0
 62
     0
 10
286.238
 20
85.7553
 30
0.0
 11
289.468
 21
85.7553
 31
0.0
  0
LINE
  8
0
 62
     0
 10
289.468
 20
85.7553
 30
0.0
 11
289.468
 21
92.505
 31
0.0
  0
LINE
  8
0
 62
     0
 10
289.468
 20
92.505
 30
0.0
 11
286.238
 21
92.505
 31
0.0
  0
LINE
  8
0
 62
     0
 10
286.238
 20
92.505
 30
0.0
 11
286.238
 21
93.3305
 31
0.0
  0
LINE
  8
0
 62
     0
 10
286.238
 20
93.3305
 30
0.0
 11
283.438
 21
93.3305
 31
0.0
  0
LINE
  8
0
 62
     0
 10
17.3812
 20
93.7563
 30
0.0
 11
31.3821
 21
93.7563
 31
0.0
  0
LINE
  8
0
 62
     0
 10
31.3821
 20
93.7563
 30
0.0
 11
31.3821
 21
79.7553
 31
0.0
  0
LINE
  8
0
 62
     0
 10
31.3821
 20
79.7553
 30
0.0
 11
17.3812
 21
79.7553
 31
0.0
  0
LINE
  8
0
 62
     0
 10
17.3812
 20
79.7553
 30
0.0
 11
17.3812
 21
93.7563
 31
0.0
  0
LINE
  8
0
 62
     0
 10
41.1949
 20
93.7563
 30
0.0
 11
55.1946
 21
93.7563
 31
0.0
  0
LINE
  8
0
 62
     0
 10
55.1946
 20
93.7563
 30
0.0
 11
55.1946
 21
79.7553
 31
0.0
  0
LINE
  8
0
 62
     0
 10
55.1946
 20
79.7553
 30
0.0
 11
41.1949
 21
79.7553
 31
0.0
  0
LINE
  8
0
 62
     0
 10
41.1949
 20
79.7553
 30
0.0
 11
41.1949
 21
93.7563
 31
0.0
  0
LINE
  8
0
 62
     0
 10
60.2449
 20
93.7563
 30
0.0
 11
74.2446
 21
93.7563
 31
0.0
  0
LINE
  8
0
 62
     0
 10
74.2446
 20
93.7563
 30
0.0
 11
74.2446
 21
79.7553
 31
0.0
  0
LINE
  8
0
 62
     0
 10
74.2446
 20
79.7553
 30
0.0
 11
60.2449
 21
79.7553
 31
0.0
  0
LINE
  8
0
 62
     0
 10
60.2449
 20
79.7553
 30
0.0
 11
60.2449
 21
93.7563
 31
0.0
  0
LINE
  8
0
 62
     0
 10
79.2949
 20
93.7563
 30
0.0
 11
93.2946
 21
93.7563
 31
0.0
  0
LINE
  8
0
 62
     0
 10
93.2946
 20
93.7563
 30
0.0
 11
93.2946
 21
79.7553
 31
0.0
  0
LINE
  8
0
 62
     0
 10
93.2946
 20
79.7553
 30
0.0
 11
79.2949
 21
79.7553
 31
0.0
  0
LINE
  8
0
 62
     0
 10
79.2949
 20
79.7553
 30
0.0
 11
79.2949
 21
93.7563
 31
0.0
  0
LINE
  8
0
 62
     0
 10
98.3449
 20
93.7563
 30
0.0
 11
112.345
 21
93.7563
 31
0.0
  0
LINE
  8
0
 62
     0
 10
112.345
 20
93.7563
 30
0.0
 11
112.345
 21
79.7553
 31
0.0
  0
LINE
  8
0
 62
     0
 10
112.345
 20
79.7553
 30
0.0
 11
98.3449
 21
79.7553
 31
0.0
  0
LINE
  8
0
 62
     0
 10
98.3449
 20
79.7553
 30
0.0
 11
98.3449
 21
93.7563
 31
0.0
  0
LINE
  8
0
 62
     0
 10
117.395
 20
93.7563
 30
0.0
 11
131.395
 21
93.7563
 31
0.0
  0
LINE
  8
0
 62
     0
 10
131.395
 20
93.7563
 30
0.0
 11
131.395
 21
79.7553
 31
0.0
  0
LINE
  8
0
 62
     0
 10
131.395
 20
79.7553
 30
0.0
 11
117.395
 21
79.7553
 31
0.0
  0
LINE
  8
0
 62
     0
 10
117.395
 20
79.7553
 30
0.0
 11
117.395
 21
93.7563
 31
0.0
  0
LINE
  8
0
 62
     0
 10
136.445
 20
93.7563
 30
0.0
 11
150.445
 21
93.7563
 31
0.0
  0
LINE
  8
0
 62
     0
 10
150.445
 20
93.7563
 30
0.0
 11
150.445
 21
79.7553
 31
0.0
  0
LINE
  8
0
 62
     0
 10
150.445
 20
79.7553
 30
0.0
 11
136.445
 21
79.7553
 31
0.0
  0
LINE
  8
0
 62
     0
 10
136.445
 20
79.7553
 30
0.0
 11
136.445
 21
93.7563
 31
0.0
  0
LINE
  8
0
 62
     0
 10
155.495
 20
93.7563
 30
0.0
 11
169.495
 21
93.7563
 31
0.0
  0
LINE
  8
0
 62
     0
 10
169.495
 20
93.7563
 30
0.0
 11
169.495
 21
79.7553
 31
0.0
  0
LINE
  8
0
 62
     0
 10
169.495
 20
79.7553
 30
0.0
 11
155.495
 21
79.7553
 31
0.0
  0
LINE
  8
0
 62
     0
 10
155.495
 20
79.7553
 30
0.0
 11
155.495
 21
93.7563
 31
0.0
  0
LINE
  8
0
 62
     0
 10
174.545
 20
93.7563
 30
0.0
 11
188.545
 21
93.7563
 31
0.0
  0
LINE
  8
0
 62
     0
 10
188.545
 20
93.7563
 30
0.0
 11
188.545
 21
79.7553
 31
0.0
  0
LINE
  8
0
 62
     0
 10
188.545
 20
79.7553
 30
0.0
 11
174.545
 21
79.7553
 31
0.0
  0
LINE
  8
0
 62
     0
 10
174.545
 20
79.7553
 30
0.0
 11
174.545
 21
93.7563
 31
0.0
  0
LINE
  8
0
 62
     0
 10
193.595
 20
93.7563
 30
0.0
 11
207.595
 21
93.7563
 31
0.0
  0
LINE
  8
0
 62
     0
 10
207.595
 20
93.7563
 30
0.0
 11
207.595
 21
79.7553
 31
0.0
  0
LINE
  8
0
 62
     0
 10
207.595
 20
79.7553
 30
0.0
 11
193.595
 21
79.7553
 31
0.0
  0
LINE
  8
0
 62
     0
 10
193.595
 20
79.7553
 30
0.0
 11
193.595
 21
93.7563
 31
0.0
  0
LINE
  8
0
 62
     0
 10
212.645
 20
93.7563
 30
0.0
 11
226.645
 21
93.7563
 31
0.0
  0
LINE
  8
0
 62
     0
 10
226.645
 20
93.7563
 30
0.0
 11
226.645
 21
79.7553
 31
0.0
  0
LINE
  8
0
 62
     0
 10
226.645
 20
79.7553
 30
0.0
 11
212.645
 21
79.7553
 31
0.0
  0
LINE
  8
0
 62
     0
 10
212.645
 20
79.7553
 30
0.0
 11
212.645
 21
93.7563
 31
0.0
  0
LINE
  8
0
 62
     0
 10
231.695
 20
93.7563
 30
0.0
 11
245.695
 21
93.7563
 31
0.0
  0
LINE
  8
0
 62
     0
 10
245.695
 20
93.7563
 30
0.0
 11
245.695
 21
79.7553
 31
0.0
  0
LINE
  8
0
 62
     0
 10
245.695
 20
79.7553
 30
0.0
 11
231.695
 21
79.7553
 31
0.0
  0
LINE
  8
0
 62
     0
 10
231.695
 20
79.7553
 30
0.0
 11
231.695
 21
93.7563
 31
0.0
  0
LINE
  8
0
 62
     0
 10
250.745
 20
93.7563
 30
0.0
 11
264.745
 21
93.7563
 31
0.0
  0
LINE
  8
0
 62
     0
 10
264.745
 20
93.7563
 30
0.0
 11
264.745
 21
79.7553
 31
0.0
  0
LINE
  8
0
 62
     0
 10
264.745
 20
79.7553
 30
0.0
 11
250.745
 21
79.7553
 31
0.0
  0
LINE
  8
0
 62
     0
 10
250.745
 20
79.7553
 30
0.0
 11
250.745
 21
93.7563
 31
0.0
  0
LINE
  8
0
 62
     0
 10
303.131
 20
93.7563
 30
0.0
 11
317.132
 21
93.7563
 31
0.0
  0
LINE
  8
0
 62
     0
 10
317.132
 20
93.7563
 30
0.0
 11
317.132
 21
79.7553
 31
0.0
  0
LINE
  8
0
 62
     0
 10
317.132
 20
79.7553
 30
0.0
 11
303.131
 21
79.7553
 31
0.0
  0
LINE
  8
0
 62
     0
 10
303.131
 20
79.7553
 30
0.0
 11
303.131
 21
93.7563
 31
0.0
  0
LINE
  8
0
 62
     0
 10
322.181
 20
93.7563
 30
0.0
 11
336.182
 21
93.7563
 31
0.0
  0
LINE
  8
0
 62
     0
 10
336.182
 20
93.7563
 30
0.0
 11
336.182
 21
79.7553
 31
0.0
  0
LINE
  8
0
 62
     0
 10
336.182
 20
79.7553
 30
0.0
 11
322.181
 21
79.7553
 31
0.0
  0
LINE
  8
0
 62
     0
 10
322.181
 20
79.7553
 30
0.0
 11
322.181
 21
93.7563
 31
0.0
  0
LINE
  8
0
 62
     0
 10
341.231
 20
93.7563
 30
0.0
 11
355.233
 21
93.7563
 31
0.0
  0
LINE
  8
0
 62
     0
 10
355.233
 20
93.7563
 30
0.0
 11
355.233
 21
79.7553
 31
0.0
  0
LINE
  8
0
 62
     0
 10
355.233
 20
79.7553
 30
0.0
 11
341.231
 21
79.7553
 31
0.0
  0
LINE
  8
0
 62
     0
 10
341.231
 20
79.7553
 30
0.0
 11
341.231
 21
93.7563
 31
0.0
  0
LINE
  8
0
 62
     0
 10
269.795
 20
112.806
 30
0.0
 11
269.795
 21
108.106
 31
0.0
  0
LINE
  8
0
 62
     0
 10
269.795
 20
108.106
 30
0.0
 11
268.27
 21
108.106
 31
0.0
  0
LINE
  8
0
 62
     0
 10
268.27
 20
108.106
 30
0.0
 11
268.27
 21
111.336
 31
0.0
  0
LINE
  8
0
 62
     0
 10
268.27
 20
111.336
 30
0.0
 11
261.52
 21
111.336
 31
0.0
  0
LINE
  8
0
 62
     0
 10
261.52
 20
111.336
 30
0.0
 11
261.52
 21
108.106
 31
0.0
  0
LINE
  8
0
 62
     0
 10
261.52
 20
108.106
 30
0.0
 11
260.695
 21
108.106
 31
0.0
  0
LINE
  8
0
 62
     0
 10
260.695
 20
108.106
 30
0.0
 11
260.695
 21
105.306
 31
0.0
  0
LINE
  8
0
 62
     0
 10
260.695
 20
105.306
 30
0.0
 11
261.52
 21
105.306
 31
0.0
  0
LINE
  8
0
 62
     0
 10
261.52
 20
105.306
 30
0.0
 11
261.52
 21
99.0353
 31
0.0
  0
LINE
  8
0
 62
     0
 10
261.52
 20
99.0353
 30
0.0
 11
263.245
 21
99.0353
 31
0.0
  0
LINE
  8
0
 62
     0
 10
263.245
 20
99.0353
 30
0.0
 11
263.245
 21
97.8352
 31
0.0
  0
LINE
  8
0
 62
     0
 10
263.245
 20
97.8352
 30
0.0
 11
266.544
 21
97.8352
 31
0.0
  0
LINE
  8
0
 62
     0
 10
266.544
 20
97.8352
 30
0.0
 11
266.544
 21
99.0353
 31
0.0
  0
LINE
  8
0
 62
     0
 10
266.544
 20
99.0353
 30
0.0
 11
268.27
 21
99.0353
 31
0.0
  0
LINE
  8
0
 62
     0
 10
268.27
 20
99.0353
 30
0.0
 11
268.27
 21
103.506
 31
0.0
  0
LINE
  8
0
 62
     0
 10
268.27
 20
103.506
 30
0.0
 11
269.795
 21
103.506
 31
0.0
  0
LINE
  8
0
 62
     0
 10
269.795
 20
103.506
 30
0.0
 11
269.795
 21
98.8053
 31
0.0
  0
LINE
  8
0
 62
     0
 10
269.795
 20
98.8053
 30
0.0
 11
283.795
 21
98.8053
 31
0.0
  0
LINE
  8
0
 62
     0
 10
283.795
 20
98.8053
 30
0.0
 11
283.795
 21
103.506
 31
0.0
  0
LINE
  8
0
 62
     0
 10
283.795
 20
103.506
 30
0.0
 11
285.32
 21
103.506
 31
0.0
  0
LINE
  8
0
 62
     0
 10
285.32
 20
103.506
 30
0.0
 11
285.32
 21
99.0353
 31
0.0
  0
LINE
  8
0
 62
     0
 10
285.32
 20
99.0353
 30
0.0
 11
287.045
 21
99.0353
 31
0.0
  0
LINE
  8
0
 62
     0
 10
287.045
 20
99.0353
 30
0.0
 11
287.045
 21
97.8352
 31
0.0
  0
LINE
  8
0
 62
     0
 10
287.045
 20
97.8352
 30
0.0
 11
290.344
 21
97.8352
 31
0.0
  0
LINE
  8
0
 62
     0
 10
290.344
 20
97.8352
 30
0.0
 11
290.344
 21
99.0353
 31
0.0
  0
LINE
  8
0
 62
     0
 10
290.344
 20
99.0353
 30
0.0
 11
292.07
 21
99.0353
 31
0.0
  0
LINE
  8
0
 62
     0
 10
292.07
 20
99.0353
 30
0.0
 11
292.07
 21
105.306
 31
0.0
  0
LINE
  8
0
 62
     0
 10
292.07
 20
105.306
 30
0.0
 11
292.895
 21
105.306
 31
0.0
  0
LINE
  8
0
 62
     0
 10
292.895
 20
105.306
 30
0.0
 11
292.895
 21
108.106
 31
0.0
  0
LINE
  8
0
 62
     0
 10
292.895
 20
108.106
 30
0.0
 11
292.07
 21
108.106
 31
0.0
  0
LINE
  8
0
 62
     0
 10
292.07
 20
108.106
 30
0.0
 11
292.07
 21
111.336
 31
0.0
  0
LINE
  8
0
 62
     0
 10
292.07
 20
111.336
 30
0.0
 11
285.32
 21
111.336
 31
0.0
  0
LINE
  8
0
 62
     0
 10
285.32
 20
111.336
 30
0.0
 11
285.32
 21
108.106
 31
0.0
  0
LINE
  8
0
 62
     0
 10
285.32
 20
108.106
 30
0.0
 11
283.795
 21
108.106
 31
0.0
  0
LINE
  8
0
 62
     0
 10
283.795
 20
108.106
 30
0.0
 11
283.795
 21
112.806
 31
0.0
  0
LINE
  8
0
 62
     0
 10
283.795
 20
112.806
 30
0.0
 11
269.795
 21
112.806
 31
0.0
  0
LINE
  8
0
 62
     0
 10
12.6201
 20
112.806
 30
0.0
 11
26.6196
 21
112.806
 31
0.0
  0
LINE
  8
0
 62
     0
 10
26.6196
 20
112.806
 30
0.0
 11
26.6196
 21
98.8053
 31
0.0
  0
LINE
  8
0
 62
     0
 10
26.6196
 20
98.8053
 30
0.0
 11
12.6201
 21
98.8053
 31
0.0
  0
LINE
  8
0
 62
     0
 10
12.6201
 20
98.8053
 30
0.0
 11
12.6201
 21
112.806
 31
0.0
  0
LINE
  8
0
 62
     0
 10
31.6701
 20
112.806
 30
0.0
 11
45.6696
 21
112.806
 31
0.0
  0
LINE
  8
0
 62
     0
 10
45.6696
 20
112.806
 30
0.0
 11
45.6696
 21
98.8053
 31
0.0
  0
LINE
  8
0
 62
     0
 10
45.6696
 20
98.8053
 30
0.0
 11
31.6701
 21
98.8053
 31
0.0
  0
LINE
  8
0
 62
     0
 10
31.6701
 20
98.8053
 30
0.0
 11
31.6701
 21
112.806
 31
0.0
  0
LINE
  8
0
 62
     0
 10
50.7199
 20
112.806
 30
0.0
 11
64.7196
 21
112.806
 31
0.0
  0
LINE
  8
0
 62
     0
 10
64.7196
 20
112.806
 30
0.0
 11
64.7196
 21
98.8053
 31
0.0
  0
LINE
  8
0
 62
     0
 10
64.7196
 20
98.8053
 30
0.0
 11
50.7199
 21
98.8053
 31
0.0
  0
LINE
  8
0
 62
     0
 10
50.7199
 20
98.8053
 30
0.0
 11
50.7199
 21
112.806
 31
0.0
  0
LINE
  8
0
 62
     0
 10
69.7699
 20
112.806
 30
0.0
 11
83.7696
 21
112.806
 31
0.0
  0
LINE
  8
0
 62
     0
 10
83.7696
 20
112.806
 30
0.0
 11
83.7696
 21
98.8053
 31
0.0
  0
LINE
  8
0
 62
     0
 10
83.7696
 20
98.8053
 30
0.0
 11
69.7699
 21
98.8053
 31
0.0
  0
LINE
  8
0
 62
     0
 10
69.7699
 20
98.8053
 30
0.0
 11
69.7699
 21
112.806
 31
0.0
  0
LINE
  8
0
 62
     0
 10
88.8199
 20
112.806
 30
0.0
 11
102.82
 21
112.806
 31
0.0
  0
LINE
  8
0
 62
     0
 10
102.82
 20
112.806
 30
0.0
 11
102.82
 21
98.8053
 31
0.0
  0
LINE
  8
0
 62
     0
 10
102.82
 20
98.8053
 30
0.0
 11
88.8199
 21
98.8053
 31
0.0
  0
LINE
  8
0
 62
     0
 10
88.8199
 20
98.8053
 30
0.0
 11
88.8199
 21
112.806
 31
0.0
  0
LINE
  8
0
 62
     0
 10
107.869
 20
112.806
 30
0.0
 11
121.868
 21
112.806
 31
0.0
  0
LINE
  8
0
 62
     0
 10
121.868
 20
112.806
 30
0.0
 11
121.868
 21
98.8053
 31
0.0
  0
LINE
  8
0
 62
     0
 10
121.868
 20
98.8053
 30
0.0
 11
107.869
 21
98.8053
 31
0.0
  0
LINE
  8
0
 62
     0
 10
107.869
 20
98.8053
 30
0.0
 11
107.869
 21
112.806
 31
0.0
  0
LINE
  8
0
 62
     0
 10
126.92
 20
112.806
 30
0.0
 11
140.92
 21
112.806
 31
0.0
  0
LINE
  8
0
 62
     0
 10
140.92
 20
112.806
 30
0.0
 11
140.92
 21
98.8053
 31
0.0
  0
LINE
  8
0
 62
     0
 10
140.92
 20
98.8053
 30
0.0
 11
126.92
 21
98.8053
 31
0.0
  0
LINE
  8
0
 62
     0
 10
126.92
 20
98.8053
 30
0.0
 11
126.92
 21
112.806
 31
0.0
  0
LINE
  8
0
 62
     0
 10
145.97
 20
112.806
 30
0.0
 11
159.97
 21
112.806
 31
0.0
  0
LINE
  8
0
 62
     0
 10
159.97
 20
112.806
 30
0.0
 11
159.97
 21
98.8053
 31
0.0
  0
LINE
  8
0
 62
     0
 10
159.97
 20
98.8053
 30
0.0
 11
145.97
 21
98.8053
 31
0.0
  0
LINE
  8
0
 62
     0
 10
145.97
 20
98.8053
 30
0.0
 11
145.97
 21
112.806
 31
0.0
  0
LINE
  8
0
 62
     0
 10
165.02
 20
112.806
 30
0.0
 11
179.02
 21
112.806
 31
0.0
  0
LINE
  8
0
 62
     0
 10
179.02
 20
112.806
 30
0.0
 11
179.02
 21
98.8053
 31
0.0
  0
LINE
  8
0
 62
     0
 10
179.02
 20
98.8053
 30
0.0
 11
165.02
 21
98.8053
 31
0.0
  0
LINE
  8
0
 62
     0
 10
165.02
 20
98.8053
 30
0.0
 11
165.02
 21
112.806
 31
0.0
  0
LINE
  8
0
 62
     0
 10
184.07
 20
112.806
 30
0.0
 11
198.07
 21
112.806
 31
0.0
  0
LINE
  8
0
 62
     0
 10
198.07
 20
112.806
 30
0.0
 11
198.07
 21
98.8053
 31
0.0
  0
LINE
  8
0
 62
     0
 10
198.07
 20
98.8053
 30
0.0
 11
184.07
 21
98.8053
 31
0.0
  0
LINE
  8
0
 62
     0
 10
184.07
 20
98.8053
 30
0.0
 11
184.07
 21
112.806
 31
0.0
  0
LINE
  8
0
 62
     0
 10
203.12
 20
112.806
 30
0.0
 11
217.12
 21
112.806
 31
0.0
  0
LINE
  8
0
 62
     0
 10
217.12
 20
112.806
 30
0.0
 11
217.12
 21
98.8053
 31
0.0
  0
LINE
  8
0
 62
     0
 10
217.12
 20
98.8053
 30
0.0
 11
203.12
 21
98.8053
 31
0.0
  0
LINE
  8
0
 62
     0
 10
203.12
 20
98.8053
 30
0.0
 11
203.12
 21
112.806
 31
0.0
  0
LINE
  8
0
 62
     0
 10
222.17
 20
112.806
 30
0.0
 11
236.17
 21
112.806
 31
0.0
  0
LINE
  8
0
 62
     0
 10
236.17
 20
112.806
 30
0.0
 11
236.17
 21
98.8053
 31
0.0
  0
LINE
  8
0
 62
     0
 10
236.17
 20
98.8053
 30
0.0
 11
222.17
 21
98.8053
 31
0.0
  0
LINE
  8
0
 62
     0
 10
222.17
 20
98.8053
 30
0.0
 11
222.17
 21
112.806
 31
0.0
  0
LINE
  8
0
 62
     0
 10
241.22
 20
112.806
 30
0.0
 11
255.22
 21
112.806
 31
0.0
  0
LINE
  8
0
 62
     0
 10
255.22
 20
112.806
 30
0.0
 11
255.22
 21
98.8053
 31
0.0
  0
LINE
  8
0
 62
     0
 10
255.22
 20
98.8053
 30
0.0
 11
241.22
 21
98.8053
 31
0.0
  0
LINE
  8
0
 62
     0
 10
241.22
 20
98.8053
 30
0.0
 11
241.22
 21
112.806
 31
0.0
  0
LINE
  8
0
 62
     0
 10
303.131
 20
112.806
 30
0.0
 11
317.132
 21
112.806
 31
0.0
  0
LINE
  8
0
 62
     0
 10
317.132
 20
112.806
 30
0.0
 11
317.132
 21
98.8053
 31
0.0
  0
LINE
  8
0
 62
     0
 10
317.132
 20
98.8053
 30
0.0
 11
303.131
 21
98.8053
 31
0.0
  0
LINE
  8
0
 62
     0
 10
303.131
 20
98.8053
 30
0.0
 11
303.131
 21
112.806
 31
0.0
  0
LINE
  8
0
 62
     0
 10
322.181
 20
112.806
 30
0.0
 11
336.182
 21
112.806
 31
0.0
  0
LINE
  8
0
 62
     0
 10
336.182
 20
112.806
 30
0.0
 11
336.182
 21
98.8053
 31
0.0
  0
LINE
  8
0
 62
     0
 10
336.182
 20
98.8053
 30
0.0
 11
322.181
 21
98.8053
 31
0.0
  0
LINE
  8
0
 62
     0
 10
322.181
 20
98.8053
 30
0.0
 11
322.181
 21
112.806
 31
0.0
  0
LINE
  8
0
 62
     0
 10
341.231
 20
112.806
 30
0.0
 11
355.233
 21
112.806
 31
0.0
  0
LINE
  8
0
 62
     0
 10
355.233
 20
112.806
 30
0.0
 11
355.233
 21
98.8053
 31
0.0
  0
LINE
  8
0
 62
     0
 10
355.233
 20
98.8053
 30
0.0
 11
341.231
 21
98.8053
 31
0.0
  0
LINE
  8
0
 62
     0
 10
341.231
 20
98.8053
 30
0.0
 11
341.231
 21
112.806
 31
0.0
  0
LINE
  8
0
 62
     0
 10
12.6201
 20
141.381
 30
0.0
 11
26.6196
 21
141.381
 31
0.0
  0
LINE
  8
0
 62
     0
 10
26.6196
 20
141.381
 30
0.0
 11
26.6196
 21
127.38
 31
0.0
  0
LINE
  8
0
 62
     0
 10
26.6196
 20
127.38
 30
0.0
 11
12.6201
 21
127.38
 31
0.0
  0
LINE
  8
0
 62
     0
 10
12.6201
 20
127.38
 30
0.0
 11
12.6201
 21
141.381
 31
0.0
  0
LINE
  8
0
 62
     0
 10
50.7199
 20
141.381
 30
0.0
 11
64.7196
 21
141.381
 31
0.0
  0
LINE
  8
0
 62
     0
 10
64.7196
 20
141.381
 30
0.0
 11
64.7196
 21
127.38
 31
0.0
  0
LINE
  8
0
 62
     0
 10
64.7196
 20
127.38
 30
0.0
 11
50.7199
 21
127.38
 31
0.0
  0
LINE
  8
0
 62
     0
 10
50.7199
 20
127.38
 30
0.0
 11
50.7199
 21
141.381
 31
0.0
  0
LINE
  8
0
 62
     0
 10
69.7699
 20
141.381
 30
0.0
 11
83.7696
 21
141.381
 31
0.0
  0
LINE
  8
0
 62
     0
 10
83.7696
 20
141.381
 30
0.0
 11
83.7696
 21
127.38
 31
0.0
  0
LINE
  8
0
 62
     0
 10
83.7696
 20
127.38
 30
0.0
 11
69.7699
 21
127.38
 31
0.0
  0
LINE
  8
0
 62
     0
 10
69.7699
 20
127.38
 30
0.0
 11
69.7699
 21
141.381
 31
0.0
  0
LINE
  8
0
 62
     0
 10
88.8199
 20
141.381
 30
0.0
 11
102.82
 21
141.381
 31
0.0
  0
LINE
  8
0
 62
     0
 10
102.82
 20
141.381
 30
0.0
 11
102.82
 21
127.38
 31
0.0
  0
LINE
  8
0
 62
     0
 10
102.82
 20
127.38
 30
0.0
 11
88.8199
 21
127.38
 31
0.0
  0
LINE
  8
0
 62
     0
 10
88.8199
 20
127.38
 30
0.0
 11
88.8199
 21
141.381
 31
0.0
  0
LINE
  8
0
 62
     0
 10
107.869
 20
141.381
 30
0.0
 11
121.868
 21
141.381
 31
0.0
  0
LINE
  8
0
 62
     0
 10
121.868
 20
141.381
 30
0.0
 11
121.868
 21
127.38
 31
0.0
  0
LINE
  8
0
 62
     0
 10
121.868
 20
127.38
 30
0.0
 11
107.869
 21
127.38
 31
0.0
  0
LINE
  8
0
 62
     0
 10
107.869
 20
127.38
 30
0.0
 11
107.869
 21
141.381
 31
0.0
  0
LINE
  8
0
 62
     0
 10
136.445
 20
141.381
 30
0.0
 11
150.445
 21
141.381
 31
0.0
  0
LINE
  8
0
 62
     0
 10
150.445
 20
141.381
 30
0.0
 11
150.445
 21
127.38
 31
0.0
  0
LINE
  8
0
 62
     0
 10
150.445
 20
127.38
 30
0.0
 11
136.445
 21
127.38
 31
0.0
  0
LINE
  8
0
 62
     0
 10
136.445
 20
127.38
 30
0.0
 11
136.445
 21
141.381
 31
0.0
  0
LINE
  8
0
 62
     0
 10
155.495
 20
141.381
 30
0.0
 11
169.495
 21
141.381
 31
0.0
  0
LINE
  8
0
 62
     0
 10
169.495
 20
141.381
 30
0.0
 11
169.495
 21
127.38
 31
0.0
  0
LINE
  8
0
 62
     0
 10
169.495
 20
127.38
 30
0.0
 11
155.495
 21
127.38
 31
0.0
  0
LINE
  8
0
 62
     0
 10
155.495
 20
127.38
 30
0.0
 11
155.495
 21
141.381
 31
0.0
  0
LINE
  8
0
 62
     0
 10
174.545
 20
141.381
 30
0.0
 11
188.545
 21
141.381
 31
0.0
  0
LINE
  8
0
 62
     0
 10
188.545
 20
141.381
 30
0.0
 11
188.545
 21
127.38
 31
0.0
  0
LINE
  8
0
 62
     0
 10
188.545
 20
127.38
 30
0.0
 11
174.545
 21
127.38
 31
0.0
  0
LINE
  8
0
 62
     0
 10
174.545
 20
127.38
 30
0.0
 11
174.545
 21
141.381
 31
0.0
  0
LINE
  8
0
 62
     0
 10
193.595
 20
141.381
 30
0.0
 11
207.595
 21
141.381
 31
0.0
  0
LINE
  8
0
 62
     0
 10
207.595
 20
141.381
 30
0.0
 11
207.595
 21
127.38
 31
0.0
  0
LINE
  8
0
 62
     0
 10
207.595
 20
127.38
 30
0.0
 11
193.595
 21
127.38
 31
0.0
  0
LINE
  8
0
 62
     0
 10
193.595
 20
127.38
 30
0.0
 11
193.595
 21
141.381
 31
0.0
  0
LINE
  8
0
 62
     0
 10
222.17
 20
141.381
 30
0.0
 11
236.17
 21
141.381
 31
0.0
  0
LINE
  8
0
 62
     0
 10
236.17
 20
141.381
 30
0.0
 11
236.17
 21
127.38
 31
0.0
  0
LINE
  8
0
 62
     0
 10
236.17
 20
127.38
 30
0.0
 11
222.17
 21
127.38
 31
0.0
  0
LINE
  8
0
 62
     0
 10
222.17
 20
127.38
 30
0.0
 11
222.17
 21
141.381
 31
0.0
  0
LINE
  8
0
 62
     0
 10
241.22
 20
141.381
 30
0.0
 11
255.22
 21
141.381
 31
0.0
  0
LINE
  8
0
 62
     0
 10
255.22
 20
141.381
 30
0.0
 11
255.22
 21
127.38
 31
0.0
  0
LINE
  8
0
 62
     0
 10
255.22
 20
127.38
 30
0.0
 11
241.22
 21
127.38
 31
0.0
  0
LINE
  8
0
 62
     0
 10
241.22
 20
127.38
 30
0.0
 11
241.22
 21
141.381
 31
0.0
  0
LINE
  8
0
 62
     0
 10
260.27
 20
141.381
 30
0.0
 11
274.27
 21
141.381
 31
0.0
  0
LINE
  8
0
 62
     0
 10
274.27
 20
141.381
 30
0.0
 11
274.27
 21
127.38
 31
0.0
  0
LINE
  8
0
 62
     0
 10
274.27
 20
127.38
 30
0.0
 11
260.27
 21
127.38
 31
0.0
  0
LINE
  8
0
 62
     0
 10
260.27
 20
127.38
 30
0.0
 11
260.27
 21
141.381
 31
0.0
  0
LINE
  8
0
 62
     0
 10
279.32
 20
141.381
 30
0.0
 11
293.32
 21
141.381
 31
0.0
  0
LINE
  8
0
 62
     0
 10
293.32
 20
141.381
 30
0.0
 11
293.32
 21
127.38
 31
0.0
  0
LINE
  8
0
 62
     0
 10
293.32
 20
127.38
 30
0.0
 11
279.32
 21
127.38
 31
0.0
  0
LINE
  8
0
 62
     0
 10
279.32
 20
127.38
 30
0.0
 11
279.32
 21
141.381
 31
0.0
  0
LINE
  8
0
 62
     0
 10
303.131
 20
141.381
 30
0.0
 11
317.132
 21
141.381
 31
0.0
  0
LINE
  8
0
 62
     0
 10
317.132
 20
141.381
 30
0.0
 11
317.132
 21
127.38
 31
0.0
  0
LINE
  8
0
 62
     0
 10
317.132
 20
127.38
 30
0.0
 11
303.131
 21
127.38
 31
0.0
  0
LINE
  8
0
 62
     0
 10
303.131
 20
127.38
 30
0.0
 11
303.131
 21
141.381
 31
0.0
  0
LINE
  8
0
 62
     0
 10
322.181
 20
141.381
 30
0.0
 11
336.182
 21
141.381
 31
0.0
  0
LINE
  8
0
 62
     0
 10
336.182
 20
141.381
 30
0.0
 11
336.182
 21
127.38
 31
0.0
  0
LINE
  8
0
 62
     0
 10
336.182
 20
127.38
 30
0.0
 11
322.181
 21
127.38
 31
0.0
  0
LINE
  8
0
 62
     0
 10
322.181
 20
127.38
 30
0.0
 11
322.181
 21
141.381
 31
0.0
  0
LINE
  8
0
 62
     0
 10
341.231
 20
141.381
 30
0.0
 11
355.233
 21
141.381
 31
0.0
  0
LINE
  8
0
 62
     0
 10
355.233
 20
141.381
 30
0.0
 11
355.233
 21
127.38
 31
0.0
  0
LINE
  8
0
 62
     0
 10
355.233
 20
127.38
 30
0.0
 11
341.231
 21
127.38
 31
0.0
  0
LINE
  8
0
 62
     0
 10
341.231
 20
127.38
 30
0.0
 11
341.231
 21
141.381
 31
0.0
  0
LINE
  8
0
 62
     0
 10
123.698
 20
160.81
 30
0.0
 11
123.139
 21
160.525
 31
0.0
  0
LINE
  8
0
 62
     0
 10
123.139
 20
160.525
 30
0.0
 11
122.698
 21
160.081
 31
0.0
  0
LINE
  8
0
 62
     0
 10
122.698
 20
160.081
 30
0.0
 11
122.414
 21
159.524
 31
0.0
  0
LINE
  8
0
 62
     0
 10
122.414
 20
159.524
 30
0.0
 11
122.316
 21
158.906
 31
0.0
  0
LINE
  8
0
 62
     0
 10
122.316
 20
158.906
 30
0.0
 11
122.414
 21
158.287
 31
0.0
  0
LINE
  8
0
 62
     0
 10
122.414
 20
158.287
 30
0.0
 11
122.698
 21
157.73
 31
0.0
  0
LINE
  8
0
 62
     0
 10
122.698
 20
157.73
 30
0.0
 11
123.139
 21
157.288
 31
0.0
  0
LINE
  8
0
 62
     0
 10
123.139
 20
157.288
 30
0.0
 11
123.698
 21
157.004
 31
0.0
  0
LINE
  8
0
 62
     0
 10
123.698
 20
157.004
 30
0.0
 11
124.316
 21
156.906
 31
0.0
  0
LINE
  8
0
 62
     0
 10
124.316
 20
156.906
 30
0.0
 11
124.934
 21
157.004
 31
0.0
  0
LINE
  8
0
 62
     0
 10
124.934
 20
157.004
 30
0.0
 11
125.49
 21
157.288
 31
0.0
  0
LINE
  8
0
 62
     0
 10
125.49
 20
157.288
 30
0.0
 11
125.934
 21
157.73
 31
0.0
  0
LINE
  8
0
 62
     0
 10
125.934
 20
157.73
 30
0.0
 11
126.217
 21
158.287
 31
0.0
  0
LINE
  8
0
 62
     0
 10
126.217
 20
158.287
 30
0.0
 11
126.315
 21
158.906
 31
0.0
  0
LINE
  8
0
 62
     0
 10
126.315
 20
158.906
 30
0.0
 11
126.217
 21
159.524
 31
0.0
  0
LINE
  8
0
 62
     0
 10
126.217
 20
159.524
 30
0.0
 11
125.934
 21
160.081
 31
0.0
  0
LINE
  8
0
 62
     0
 10
125.934
 20
160.081
 30
0.0
 11
125.49
 21
160.525
 31
0.0
  0
LINE
  8
0
 62
     0
 10
125.49
 20
160.525
 30
0.0
 11
124.934
 21
160.81
 31
0.0
  0
LINE
  8
0
 62
     0
 10
124.934
 20
160.81
 30
0.0
 11
124.316
 21
160.905
 31
0.0
  0
LINE
  8
0
 62
     0
 10
124.316
 20
160.905
 30
0.0
 11
123.698
 21
160.81
 31
0.0
  0
LINE
  8
0
 62
     0
 10
242.919
 20
160.81
 30
0.0
 11
242.361
 21
160.525
 31
0.0
  0
LINE
  8
0
 62
     0
 10
242.361
 20
160.525
 30
0.0
 11
241.919
 21
160.081
 31
0.0
  0
LINE
  8
0
 62
     0
 10
241.919
 20
160.081
 30
0.0
 11
241.635
 21
159.524
 31
0.0
  0
LINE
  8
0
 62
     0
 10
241.635
 20
159.524
 30
0.0
 11
241.537
 21
158.906
 31
0.0
  0
LINE
  8
0
 62
     0
 10
241.537
 20
158.906
 30
0.0
 11
241.635
 21
158.287
 31
0.0
  0
LINE
  8
0
 62
     0
 10
241.635
 20
158.287
 30
0.0
 11
241.919
 21
157.73
 31
0.0
  0
LINE
  8
0
 62
     0
 10
241.919
 20
157.73
 30
0.0
 11
242.361
 21
157.288
 31
0.0
  0
LINE
  8
0
 62
     0
 10
242.361
 20
157.288
 30
0.0
 11
242.919
 21
157.004
 31
0.0
  0
LINE
  8
0
 62
     0
 10
242.919
 20
157.004
 30
0.0
 11
243.537
 21
156.906
 31
0.0
  0
LINE
  8
0
 62
     0
 10
243.537
 20
156.906
 30
0.0
 11
244.155
 21
157.004
 31
0.0
  0
LINE
  8
0
 62
     0
 10
244.155
 20
157.004
 30
0.0
 11
244.712
 21
157.288
 31
0.0
  0
LINE
  8
0
 62
     0
 10
244.712
 20
157.288
 30
0.0
 11
245.154
 21
157.73
 31
0.0
  0
LINE
  8
0
 62
     0
 10
245.154
 20
157.73
 30
0.0
 11
245.438
 21
158.287
 31
0.0
  0
LINE
  8
0
 62
     0
 10
245.438
 20
158.287
 30
0.0
 11
245.536
 21
158.906
 31
0.0
  0
LINE
  8
0
 62
     0
 10
245.536
 20
158.906
 30
0.0
 11
245.438
 21
159.524
 31
0.0
  0
LINE
  8
0
 62
     0
 10
245.438
 20
159.524
 30
0.0
 11
245.154
 21
160.081
 31
0.0
  0
LINE
  8
0
 62
     0
 10
245.154
 20
160.081
 30
0.0
 11
244.712
 21
160.525
 31
0.0
  0
LINE
  8
0
 62
     0
 10
244.712
 20
160.525
 30
0.0
 11
244.155
 21
160.81
 31
0.0
  0
LINE
  8
0
 62
     0
 10
244.155
 20
160.81
 30
0.0
 11
243.537
 21
160.905
 31
0.0
  0
LINE
  8
0
 62
     0
 10
243.537
 20
160.905
 30
0.0
 11
242.919
 21
160.81
 31
0.0
  0
LINE
  8
0
 62
     0
 10
362.141
 20
160.81
 30
0.0
 11
361.583
 21
160.525
 31
0.0
  0
LINE
  8
0
 62
     0
 10
361.583
 20
160.525
 30
0.0
 11
361.139
 21
160.081
 31
0.0
  0
LINE
  8
0
 62
     0
 10
361.139
 20
160.081
 30
0.0
 11
360.856
 21
159.524
 31
0.0
  0
LINE
  8
0
 62
     0
 10
360.856
 20
159.524
 30
0.0
 11
360.758
 21
158.906
 31
0.0
  0
LINE
  8
0
 62
     0
 10
360.758
 20
158.906
 30
0.0
 11
360.856
 21
158.287
 31
0.0
  0
LINE
  8
0
 62
     0
 10
360.856
 20
158.287
 30
0.0
 11
361.139
 21
157.73
 31
0.0
  0
LINE
  8
0
 62
     0
 10
361.139
 20
157.73
 30
0.0
 11
361.583
 21
157.288
 31
0.0
  0
LINE
  8
0
 62
     0
 10
361.583
 20
157.288
 30
0.0
 11
362.141
 21
157.004
 31
0.0
  0
LINE
  8
0
 62
     0
 10
362.141
 20
157.004
 30
0.0
 11
362.758
 21
156.906
 31
0.0
  0
LINE
  8
0
 62
     0
 10
362.758
 20
156.906
 30
0.0
 11
363.375
 21
157.004
 31
0.0
  0
LINE
  8
0
 62
     0
 10
363.375
 20
157.004
 30
0.0
 11
363.936
 21
157.288
 31
0.0
  0
LINE
  8
0
 62
     0
 10
363.936
 20
157.288
 30
0.0
 11
364.377
 21
157.73
 31
0.0
  0
LINE
  8
0
 62
     0
 10
364.377
 20
157.73
 30
0.0
 11
364.659
 21
158.287
 31
0.0
  0
LINE
  8
0
 62
     0
 10
364.659
 20
158.287
 30
0.0
 11
364.758
 21
158.906
 31
0.0
  0
LINE
  8
0
 62
     0
 10
364.758
 20
158.906
 30
0.0
 11
364.659
 21
159.524
 31
0.0
  0
LINE
  8
0
 62
     0
 10
364.659
 20
159.524
 30
0.0
 11
364.377
 21
160.081
 31
0.0
  0
LINE
  8
0
 62
     0
 10
364.377
 20
160.081
 30
0.0
 11
363.936
 21
160.525
 31
0.0
  0
LINE
  8
0
 62
     0
 10
363.936
 20
160.525
 30
0.0
 11
363.375
 21
160.81
 31
0.0
  0
LINE
  8
0
 62
     0
 10
363.375
 20
160.81
 30
0.0
 11
362.758
 21
160.905
 31
0.0
  0
LINE
  8
0
 62
     0
 10
362.758
 20
160.905
 30
0.0
 11
362.141
 21
160.81
 31
0.0
  0
LINE
  8
0
 62
     0
 10
4.47587
 20
160.81
 30
0.0
 11
3.91915
 21
160.525
 31
0.0
  0
LINE
  8
0
 62
     0
 10
3.91915
 20
160.525
 30
0.0
 11
3.47541
 21
160.081
 31
0.0
  0
LINE
  8
0
 62
     0
 10
3.47541
 20
160.081
 30
0.0
 11
3.19016
 21
159.524
 31
0.0
  0
LINE
  8
0
 62
     0
 10
3.19016
 20
159.524
 30
0.0
 11
3.0937
 21
158.906
 31
0.0
  0
LINE
  8
0
 62
     0
 10
3.0937
 20
158.906
 30
0.0
 11
3.19016
 21
158.287
 31
0.0
  0
LINE
  8
0
 62
     0
 10
3.19016
 20
158.287
 30
0.0
 11
3.47541
 21
157.73
 31
0.0
  0
LINE
  8
0
 62
     0
 10
3.47541
 20
157.73
 30
0.0
 11
3.91915
 21
157.288
 31
0.0
  0
LINE
  8
0
 62
     0
 10
3.91915
 20
157.288
 30
0.0
 11
4.47587
 21
157.004
 31
0.0
  0
LINE
  8
0
 62
     0
 10
4.47587
 20
157.004
 30
0.0
 11
5.09323
 21
156.906
 31
0.0
  0
LINE
  8
0
 62
     0
 10
5.09323
 20
156.906
 30
0.0
 11
5.71334
 21
157.004
 31
0.0
  0
LINE
  8
0
 62
     0
 10
5.71334
 20
157.004
 30
0.0
 11
6.27006
 21
157.288
 31
0.0
  0
LINE
  8
0
 62
     0
 10
6.27006
 20
157.288
 30
0.0
 11
6.71241
 21
157.73
 31
0.0
  0
LINE
  8
0
 62
     0
 10
6.71241
 20
157.73
 30
0.0
 11
6.99629
 21
158.287
 31
0.0
  0
LINE
  8
0
 62
     0
 10
6.99629
 20
158.287
 30
0.0
 11
7.09415
 21
158.906
 31
0.0
  0
LINE
  8
0
 62
     0
 10
7.09415
 20
158.906
 30
0.0
 11
6.99629
 21
159.524
 31
0.0
  0
LINE
  8
0
 62
     0
 10
6.99629
 20
159.524
 30
0.0
 11
6.71241
 21
160.081
 31
0.0
  0
LINE
  8
0
 62
     0
 10
6.71241
 20
160.081
 30
0.0
 11
6.27006
 21
160.525
 31
0.0
  0
LINE
  8
0
 62
     0
 10
6.27006
 20
160.525
 30
0.0
 11
5.71334
 21
160.81
 31
0.0
  0
LINE
  8
0
 62
     0
 10
5.71334
 20
160.81
 30
0.0
 11
5.09323
 21
160.905
 31
0.0
  0
LINE
  8
0
 62
     0
 10
5.09323
 20
160.905
 30
0.0
 11
4.47587
 21
160.81
 31
0.0
  0
ENDSEC
  0
EOF
