  0
SECTION
  2
HEADER
  9
$ACADVER
  1
AC1009
  9
$EXTMIN
 10
0.0
 20
0.0
 30
0.0
  9
$EXTMAX
 10
1000.0
 20
1000.0
 30
0.0
  9
$FILLMODE
 70
 0
  9
$SPLFRAME
 70
 1
  0
ENDSEC
  0
SECTION
  2
TABLES
  0
TABLE
  2
LAYER
 70
1
  0
LAYER
  2
0
 70
     0
 62
     7
  6
CONTINUOUS
  0
ENDTAB
  0
ENDSEC
  0
SECTION
  2
ENTITIES
  0
LINE
  8
0
 62
     0
 10
362.758
 20
163.905
 30
0.0
 11
363.149
 21
163.89
 31
0.0
  0
LINE
  8
0
 62
     0
 10
363.149
 20
163.89
 30
0.0
 11
363.541
 21
163.844
 31
0.0
  0
LINE
  8
0
 62
     0
 10
363.541
 20
163.844
 30
0.0
 11
363.926
 21
163.768
 31
0.0
  0
LINE
  8
0
 62
     0
 10
363.926
 20
163.768
 30
0.0
 11
364.303
 21
163.661
 31
0.0
  0
LINE
  8
0
 62
     0
 10
364.303
 20
163.661
 30
0.0
 11
364.67
 21
163.525
 31
0.0
  0
LINE
  8
0
 62
     0
 10
364.67
 20
163.525
 30
0.0
 11
365.026
 21
163.361
 31
0.0
  0
LINE
  8
0
 62
     0
 10
365.026
 20
163.361
 30
0.0
 11
365.372
 21
163.169
 31
0.0
  0
LINE
  8
0
 62
     0
 10
365.372
 20
163.169
 30
0.0
 11
365.696
 21
162.952
 31
0.0
  0
LINE
  8
0
 62
     0
 10
365.696
 20
162.952
 30
0.0
 11
366.003
 21
162.709
 31
0.0
  0
LINE
  8
0
 62
     0
 10
366.003
 20
162.709
 30
0.0
 11
366.293
 21
162.442
 31
0.0
  0
LINE
  8
0
 62
     0
 10
366.293
 20
162.442
 30
0.0
 11
366.561
 21
162.154
 31
0.0
  0
LINE
  8
0
 62
     0
 10
366.561
 20
162.154
 30
0.0
 11
366.801
 21
161.845
 31
0.0
  0
LINE
  8
0
 62
     0
 10
366.801
 20
161.845
 30
0.0
 11
367.023
 21
161.519
 31
0.0
  0
LINE
  8
0
 62
     0
 10
367.023
 20
161.519
 30
0.0
 11
367.213
 21
161.175
 31
0.0
  0
LINE
  8
0
 62
     0
 10
367.213
 20
161.175
 30
0.0
 11
367.376
 21
160.82
 31
0.0
  0
LINE
  8
0
 62
     0
 10
367.376
 20
160.82
 30
0.0
 11
367.513
 21
160.452
 31
0.0
  0
LINE
  8
0
 62
     0
 10
367.513
 20
160.452
 30
0.0
 11
367.619
 21
160.073
 31
0.0
  0
LINE
  8
0
 62
     0
 10
367.619
 20
160.073
 30
0.0
 11
367.697
 21
159.688
 31
0.0
  0
LINE
  8
0
 62
     0
 10
367.697
 20
159.688
 30
0.0
 11
367.743
 21
159.299
 31
0.0
  0
LINE
  8
0
 62
     0
 10
367.743
 20
159.299
 30
0.0
 11
367.757
 21
158.906
 31
0.0
  0
LINE
  8
0
 62
     0
 10
367.757
 20
158.906
 30
0.0
 11
367.757
 21
5.07944
 31
0.0
  0
LINE
  8
0
 62
     0
 10
367.757
 20
5.07944
 30
0.0
 11
367.743
 21
4.6881
 31
0.0
  0
LINE
  8
0
 62
     0
 10
367.743
 20
4.6881
 30
0.0
 11
367.697
 21
4.2981
 31
0.0
  0
LINE
  8
0
 62
     0
 10
367.697
 20
4.2981
 30
0.0
 11
367.619
 21
3.91223
 31
0.0
  0
LINE
  8
0
 62
     0
 10
367.619
 20
3.91223
 30
0.0
 11
367.513
 21
3.53466
 31
0.0
  0
LINE
  8
0
 62
     0
 10
367.513
 20
3.53466
 30
0.0
 11
367.376
 21
3.16673
 31
0.0
  0
LINE
  8
0
 62
     0
 10
367.376
 20
3.16673
 30
0.0
 11
367.213
 21
2.8112
 31
0.0
  0
LINE
  8
0
 62
     0
 10
367.213
 20
2.8112
 30
0.0
 11
367.023
 21
2.46807
 31
0.0
  0
LINE
  8
0
 62
     0
 10
367.023
 20
2.46807
 30
0.0
 11
366.801
 21
2.14147
 31
0.0
  0
LINE
  8
0
 62
     0
 10
366.801
 20
2.14147
 30
0.0
 11
366.561
 21
1.83279
 31
0.0
  0
LINE
  8
0
 62
     0
 10
366.561
 20
1.83279
 30
0.0
 11
366.293
 21
1.54478
 31
0.0
  0
LINE
  8
0
 62
     0
 10
366.293
 20
1.54478
 30
0.0
 11
366.003
 21
1.27744
 31
0.0
  0
LINE
  8
0
 62
     0
 10
366.003
 20
1.27744
 30
0.0
 11
365.696
 21
1.03491
 31
0.0
  0
LINE
  8
0
 62
     0
 10
365.696
 20
1.03491
 30
0.0
 11
365.372
 21
0.817178
 31
0.0
  0
LINE
  8
0
 62
     0
 10
365.372
 20
0.817178
 30
0.0
 11
365.026
 21
0.624251
 31
0.0
  0
LINE
  8
0
 62
     0
 10
365.026
 20
0.624251
 30
0.0
 11
364.67
 21
0.460266
 31
0.0
  0
LINE
  8
0
 62
     0
 10
364.67
 20
0.460266
 30
0.0
 11
364.303
 21
0.325217
 31
0.0
  0
LINE
  8
0
 62
     0
 10
364.303
 20
0.325217
 30
0.0
 11
363.926
 21
0.219108
 31
0.0
  0
LINE
  8
0
 62
     0
 10
363.926
 20
0.219108
 30
0.0
 11
363.541
 21
0.141938
 31
0.0
  0
LINE
  8
0
 62
     0
 10
363.541
 20
0.141938
 30
0.0
 11
363.149
 21
0.0950846
 31
0.0
  0
LINE
  8
0
 62
     0
 10
363.149
 20
0.0950846
 30
0.0
 11
362.758
 21
0.0799264
 31
0.0
  0
LINE
  8
0
 62
     0
 10
362.758
 20
0.0799264
 30
0.0
 11
5.0946
 21
0.0799264
 31
0.0
  0
LINE
  8
0
 62
     0
 10
5.0946
 20
0.0799264
 30
0.0
 11
4.70186
 21
0.0950846
 31
0.0
  0
LINE
  8
0
 62
     0
 10
4.70186
 20
0.0950846
 30
0.0
 11
4.3119
 21
0.141938
 31
0.0
  0
LINE
  8
0
 62
     0
 10
4.3119
 20
0.141938
 30
0.0
 11
3.9274
 21
0.219108
 31
0.0
  0
LINE
  8
0
 62
     0
 10
3.9274
 20
0.219108
 30
0.0
 11
3.54845
 21
0.325217
 31
0.0
  0
LINE
  8
0
 62
     0
 10
3.54845
 20
0.325217
 30
0.0
 11
3.18051
 21
0.460266
 31
0.0
  0
LINE
  8
0
 62
     0
 10
3.18051
 20
0.460266
 30
0.0
 11
2.82498
 21
0.624251
 31
0.0
  0
LINE
  8
0
 62
     0
 10
2.82498
 20
0.624251
 30
0.0
 11
2.48185
 21
0.817178
 31
0.0
  0
LINE
  8
0
 62
     0
 10
2.48185
 20
0.817178
 30
0.0
 11
2.15525
 21
1.03491
 31
0.0
  0
LINE
  8
0
 62
     0
 10
2.15525
 20
1.03491
 30
0.0
 11
1.84657
 21
1.27744
 31
0.0
  0
LINE
  8
0
 62
     0
 10
1.84657
 20
1.27744
 30
0.0
 11
1.55856
 21
1.54478
 31
0.0
  0
LINE
  8
0
 62
     0
 10
1.55856
 20
1.54478
 30
0.0
 11
1.29122
 21
1.83279
 31
0.0
  0
LINE
  8
0
 62
     0
 10
1.29122
 20
1.83279
 30
0.0
 11
1.04869
 21
2.14147
 31
0.0
  0
LINE
  8
0
 62
     0
 10
1.04869
 20
2.14147
 30
0.0
 11
0.830957
 21
2.46807
 31
0.0
  0
LINE
  8
0
 62
     0
 10
0.830957
 20
2.46807
 30
0.0
 11
0.63941
 21
2.8112
 31
0.0
  0
LINE
  8
0
 62
     0
 10
0.63941
 20
2.8112
 30
0.0
 11
0.475424
 21
3.16673
 31
0.0
  0
LINE
  8
0
 62
     0
 10
0.475424
 20
3.16673
 30
0.0
 11
0.338998
 21
3.53466
 31
0.0
  0
LINE
  8
0
 62
     0
 10
0.338998
 20
3.53466
 30
0.0
 11
0.232888
 21
3.91223
 31
0.0
  0
LINE
  8
0
 62
     0
 10
0.232888
 20
3.91223
 30
0.0
 11
0.155718
 21
4.2981
 31
0.0
  0
LINE
  8
0
 62
     0
 10
0.155718
 20
4.2981
 30
0.0
 11
0.110243
 21
4.6881
 31
0.0
  0
LINE
  8
0
 62
     0
 10
0.110243
 20
4.6881
 30
0.0
 11
0.0937066
 21
5.07944
 31
0.0
  0
LINE
  8
0
 62
     0
 10
0.0937066
 20
5.07944
 30
0.0
 11
0.0950846
 21
158.906
 31
0.0
  0
LINE
  8
0
 62
     0
 10
0.0950846
 20
158.906
 30
0.0
 11
0.110243
 21
159.299
 31
0.0
  0
LINE
  8
0
 62
     0
 10
0.110243
 20
159.299
 30
0.0
 11
0.155718
 21
159.688
 31
0.0
  0
LINE
  8
0
 62
     0
 10
0.155718
 20
159.688
 30
0.0
 11
0.232888
 21
160.073
 31
0.0
  0
LINE
  8
0
 62
     0
 10
0.232888
 20
160.073
 30
0.0
 11
0.338998
 21
160.452
 31
0.0
  0
LINE
  8
0
 62
     0
 10
0.338998
 20
160.452
 30
0.0
 11
0.475424
 21
160.82
 31
0.0
  0
LINE
  8
0
 62
     0
 10
0.475424
 20
160.82
 30
0.0
 11
0.63941
 21
161.175
 31
0.0
  0
LINE
  8
0
 62
     0
 10
0.63941
 20
161.175
 30
0.0
 11
0.830957
 21
161.519
 31
0.0
  0
LINE
  8
0
 62
     0
 10
0.830957
 20
161.519
 30
0.0
 11
1.04869
 21
161.845
 31
0.0
  0
LINE
  8
0
 62
     0
 10
1.04869
 20
161.845
 30
0.0
 11
1.29122
 21
162.154
 31
0.0
  0
LINE
  8
0
 62
     0
 10
1.29122
 20
162.154
 30
0.0
 11
1.55856
 21
162.442
 31
0.0
  0
LINE
  8
0
 62
     0
 10
1.55856
 20
162.442
 30
0.0
 11
1.84657
 21
162.709
 31
0.0
  0
LINE
  8
0
 62
     0
 10
1.84657
 20
162.709
 30
0.0
 11
2.15525
 21
162.952
 31
0.0
  0
LINE
  8
0
 62
     0
 10
2.15525
 20
162.952
 30
0.0
 11
2.48185
 21
163.169
 31
0.0
  0
LINE
  8
0
 62
     0
 10
2.48185
 20
163.169
 30
0.0
 11
2.82498
 21
163.361
 31
0.0
  0
LINE
  8
0
 62
     0
 10
2.82498
 20
163.361
 30
0.0
 11
3.18051
 21
163.525
 31
0.0
  0
LINE
  8
0
 62
     0
 10
3.18051
 20
163.525
 30
0.0
 11
3.54845
 21
163.661
 31
0.0
  0
LINE
  8
0
 62
     0
 10
3.54845
 20
163.661
 30
0.0
 11
3.9274
 21
163.768
 31
0.0
  0
LINE
  8
0
 62
     0
 10
3.9274
 20
163.768
 30
0.0
 11
4.3119
 21
163.844
 31
0.0
  0
LINE
  8
0
 62
     0
 10
4.3119
 20
163.844
 30
0.0
 11
4.70186
 21
163.89
 31
0.0
  0
LINE
  8
0
 62
     0
 10
4.70186
 20
163.89
 30
0.0
 11
5.0946
 21
163.907
 31
0.0
  0
LINE
  8
0
 62
     0
 10
5.0946
 20
163.907
 30
0.0
 11
362.758
 21
163.905
 31
0.0
  0
LINE
  8
0
 62
     0
 10
362.141
 20
6.98253
 30
0.0
 11
361.583
 21
6.69865
 31
0.0
  0
LINE
  8
0
 62
     0
 10
361.583
 20
6.69865
 30
0.0
 11
361.139
 21
6.25493
 31
0.0
  0
LINE
  8
0
 62
     0
 10
361.139
 20
6.25493
 30
0.0
 11
360.856
 21
5.69817
 31
0.0
  0
LINE
  8
0
 62
     0
 10
360.856
 20
5.69817
 30
0.0
 11
360.758
 21
5.07944
 31
0.0
  0
LINE
  8
0
 62
     0
 10
360.758
 20
5.07944
 30
0.0
 11
360.856
 21
4.46207
 31
0.0
  0
LINE
  8
0
 62
     0
 10
360.856
 20
4.46207
 30
0.0
 11
361.139
 21
3.90398
 31
0.0
  0
LINE
  8
0
 62
     0
 10
361.139
 20
3.90398
 30
0.0
 11
361.583
 21
3.46163
 31
0.0
  0
LINE
  8
0
 62
     0
 10
361.583
 20
3.46163
 30
0.0
 11
362.141
 21
3.17776
 31
0.0
  0
LINE
  8
0
 62
     0
 10
362.141
 20
3.17776
 30
0.0
 11
362.758
 21
3.07992
 31
0.0
  0
LINE
  8
0
 62
     0
 10
362.758
 20
3.07992
 30
0.0
 11
363.375
 21
3.17776
 31
0.0
  0
LINE
  8
0
 62
     0
 10
363.375
 20
3.17776
 30
0.0
 11
363.936
 21
3.46163
 31
0.0
  0
LINE
  8
0
 62
     0
 10
363.936
 20
3.46163
 30
0.0
 11
364.377
 21
3.90398
 31
0.0
  0
LINE
  8
0
 62
     0
 10
364.377
 20
3.90398
 30
0.0
 11
364.659
 21
4.46207
 31
0.0
  0
LINE
  8
0
 62
     0
 10
364.659
 20
4.46207
 30
0.0
 11
364.758
 21
5.07944
 31
0.0
  0
LINE
  8
0
 62
     0
 10
364.758
 20
5.07944
 30
0.0
 11
364.659
 21
5.69817
 31
0.0
  0
LINE
  8
0
 62
     0
 10
364.659
 20
5.69817
 30
0.0
 11
364.377
 21
6.25493
 31
0.0
  0
LINE
  8
0
 62
     0
 10
364.377
 20
6.25493
 30
0.0
 11
363.936
 21
6.69865
 31
0.0
  0
LINE
  8
0
 62
     0
 10
363.936
 20
6.69865
 30
0.0
 11
363.375
 21
6.98253
 31
0.0
  0
LINE
  8
0
 62
     0
 10
363.375
 20
6.98253
 30
0.0
 11
362.758
 21
7.07898
 31
0.0
  0
LINE
  8
0
 62
     0
 10
362.758
 20
7.07898
 30
0.0
 11
362.141
 21
6.98253
 31
0.0
  0
LINE
  8
0
 62
     0
 10
242.919
 20
6.98253
 30
0.0
 11
242.361
 21
6.69865
 31
0.0
  0
LINE
  8
0
 62
     0
 10
242.361
 20
6.69865
 30
0.0
 11
241.919
 21
6.25493
 31
0.0
  0
LINE
  8
0
 62
     0
 10
241.919
 20
6.25493
 30
0.0
 11
241.635
 21
5.69817
 31
0.0
  0
LINE
  8
0
 62
     0
 10
241.635
 20
5.69817
 30
0.0
 11
241.537
 21
5.07944
 31
0.0
  0
LINE
  8
0
 62
     0
 10
241.537
 20
5.07944
 30
0.0
 11
241.635
 21
4.46207
 31
0.0
  0
LINE
  8
0
 62
     0
 10
241.635
 20
4.46207
 30
0.0
 11
241.919
 21
3.90398
 31
0.0
  0
LINE
  8
0
 62
     0
 10
241.919
 20
3.90398
 30
0.0
 11
242.361
 21
3.46163
 31
0.0
  0
LINE
  8
0
 62
     0
 10
242.361
 20
3.46163
 30
0.0
 11
242.919
 21
3.17776
 31
0.0
  0
LINE
  8
0
 62
     0
 10
242.919
 20
3.17776
 30
0.0
 11
243.537
 21
3.07992
 31
0.0
  0
LINE
  8
0
 62
     0
 10
243.537
 20
3.07992
 30
0.0
 11
244.155
 21
3.17776
 31
0.0
  0
LINE
  8
0
 62
     0
 10
244.155
 20
3.17776
 30
0.0
 11
244.712
 21
3.46163
 31
0.0
  0
LINE
  8
0
 62
     0
 10
244.712
 20
3.46163
 30
0.0
 11
245.154
 21
3.90398
 31
0.0
  0
LINE
  8
0
 62
     0
 10
245.154
 20
3.90398
 30
0.0
 11
245.438
 21
4.46207
 31
0.0
  0
LINE
  8
0
 62
     0
 10
245.438
 20
4.46207
 30
0.0
 11
245.536
 21
5.07944
 31
0.0
  0
LINE
  8
0
 62
     0
 10
245.536
 20
5.07944
 30
0.0
 11
245.438
 21
5.69817
 31
0.0
  0
LINE
  8
0
 62
     0
 10
245.438
 20
5.69817
 30
0.0
 11
245.154
 21
6.25493
 31
0.0
  0
LINE
  8
0
 62
     0
 10
245.154
 20
6.25493
 30
0.0
 11
244.712
 21
6.69865
 31
0.0
  0
LINE
  8
0
 62
     0
 10
244.712
 20
6.69865
 30
0.0
 11
244.155
 21
6.98253
 31
0.0
  0
LINE
  8
0
 62
     0
 10
244.155
 20
6.98253
 30
0.0
 11
243.537
 21
7.07898
 31
0.0
  0
LINE
  8
0
 62
     0
 10
243.537
 20
7.07898
 30
0.0
 11
242.919
 21
6.98253
 31
0.0
  0
LINE
  8
0
 62
     0
 10
123.698
 20
6.98253
 30
0.0
 11
123.139
 21
6.69865
 31
0.0
  0
LINE
  8
0
 62
     0
 10
123.139
 20
6.69865
 30
0.0
 11
122.698
 21
6.25493
 31
0.0
  0
LINE
  8
0
 62
     0
 10
122.698
 20
6.25493
 30
0.0
 11
122.414
 21
5.69817
 31
0.0
  0
LINE
  8
0
 62
     0
 10
122.414
 20
5.69817
 30
0.0
 11
122.316
 21
5.07944
 31
0.0
  0
LINE
  8
0
 62
     0
 10
122.316
 20
5.07944
 30
0.0
 11
122.414
 21
4.46207
 31
0.0
  0
LINE
  8
0
 62
     0
 10
122.414
 20
4.46207
 30
0.0
 11
122.698
 21
3.90398
 31
0.0
  0
LINE
  8
0
 62
     0
 10
122.698
 20
3.90398
 30
0.0
 11
123.139
 21
3.46163
 31
0.0
  0
LINE
  8
0
 62
     0
 10
123.139
 20
3.46163
 30
0.0
 11
123.698
 21
3.17776
 31
0.0
  0
LINE
  8
0
 62
     0
 10
123.698
 20
3.17776
 30
0.0
 11
124.316
 21
3.07992
 31
0.0
  0
LINE
  8
0
 62
     0
 10
124.316
 20
3.07992
 30
0.0
 11
124.934
 21
3.17776
 31
0.0
  0
LINE
  8
0
 62
     0
 10
124.934
 20
3.17776
 30
0.0
 11
125.49
 21
3.46163
 31
0.0
  0
LINE
  8
0
 62
     0
 10
125.49
 20
3.46163
 30
0.0
 11
125.934
 21
3.90398
 31
0.0
  0
LINE
  8
0
 62
     0
 10
125.934
 20
3.90398
 30
0.0
 11
126.217
 21
4.46207
 31
0.0
  0
LINE
  8
0
 62
     0
 10
126.217
 20
4.46207
 30
0.0
 11
126.315
 21
5.07944
 31
0.0
  0
LINE
  8
0
 62
     0
 10
126.315
 20
5.07944
 30
0.0
 11
126.217
 21
5.69817
 31
0.0
  0
LINE
  8
0
 62
     0
 10
126.217
 20
5.69817
 30
0.0
 11
125.934
 21
6.25493
 31
0.0
  0
LINE
  8
0
 62
     0
 10
125.934
 20
6.25493
 30
0.0
 11
125.49
 21
6.69865
 31
0.0
  0
LINE
  8
0
 62
     0
 10
125.49
 20
6.69865
 30
0.0
 11
124.934
 21
6.98253
 31
0.0
  0
LINE
  8
0
 62
     0
 10
124.934
 20
6.98253
 30
0.0
 11
124.316
 21
7.07898
 31
0.0
  0
LINE
  8
0
 62
     0
 10
124.316
 20
7.07898
 30
0.0
 11
123.698
 21
6.98253
 31
0.0
  0
LINE
  8
0
 62
     0
 10
4.47587
 20
6.98253
 30
0.0
 11
3.91915
 21
6.69865
 31
0.0
  0
LINE
  8
0
 62
     0
 10
3.91915
 20
6.69865
 30
0.0
 11
3.47541
 21
6.25493
 31
0.0
  0
LINE
  8
0
 62
     0
 10
3.47541
 20
6.25493
 30
0.0
 11
3.19016
 21
5.69817
 31
0.0
  0
LINE
  8
0
 62
     0
 10
3.19016
 20
5.69817
 30
0.0
 11
3.0937
 21
5.07944
 31
0.0
  0
LINE
  8
0
 62
     0
 10
3.0937
 20
5.07944
 30
0.0
 11
3.19016
 21
4.46207
 31
0.0
  0
LINE
  8
0
 62
     0
 10
3.19016
 20
4.46207
 30
0.0
 11
3.47541
 21
3.90398
 31
0.0
  0
LINE
  8
0
 62
     0
 10
3.47541
 20
3.90398
 30
0.0
 11
3.91915
 21
3.46163
 31
0.0
  0
LINE
  8
0
 62
     0
 10
3.91915
 20
3.46163
 30
0.0
 11
4.47587
 21
3.17776
 31
0.0
  0
LINE
  8
0
 62
     0
 10
4.47587
 20
3.17776
 30
0.0
 11
5.09323
 21
3.07992
 31
0.0
  0
LINE
  8
0
 62
     0
 10
5.09323
 20
3.07992
 30
0.0
 11
5.71334
 21
3.17776
 31
0.0
  0
LINE
  8
0
 62
     0
 10
5.71334
 20
3.17776
 30
0.0
 11
6.27006
 21
3.46163
 31
0.0
  0
LINE
  8
0
 62
     0
 10
6.27006
 20
3.46163
 30
0.0
 11
6.71241
 21
3.90398
 31
0.0
  0
LINE
  8
0
 62
     0
 10
6.71241
 20
3.90398
 30
0.0
 11
6.99629
 21
4.46207
 31
0.0
  0
LINE
  8
0
 62
     0
 10
6.99629
 20
4.46207
 30
0.0
 11
7.09415
 21
5.07944
 31
0.0
  0
LINE
  8
0
 62
     0
 10
7.09415
 20
5.07944
 30
0.0
 11
6.99629
 21
5.69817
 31
0.0
  0
LINE
  8
0
 62
     0
 10
6.99629
 20
5.69817
 30
0.0
 11
6.71241
 21
6.25493
 31
0.0
  0
LINE
  8
0
 62
     0
 10
6.71241
 20
6.25493
 30
0.0
 11
6.27006
 21
6.69865
 31
0.0
  0
LINE
  8
0
 62
     0
 10
6.27006
 20
6.69865
 30
0.0
 11
5.71334
 21
6.98253
 31
0.0
  0
LINE
  8
0
 62
     0
 10
5.71334
 20
6.98253
 30
0.0
 11
5.09323
 21
7.07898
 31
0.0
  0
LINE
  8
0
 62
     0
 10
5.09323
 20
7.07898
 30
0.0
 11
4.47587
 21
6.98253
 31
0.0
  0
LINE
  8
0
 62
     0
 10
10.0928
 20
115.332
 30
0.0
 11
10.0928
 21
96.2794
 31
0.0
  0
LINE
  8
0
 62
     0
 10
10.0928
 20
96.2794
 30
0.0
 11
10.0941
 21
96.2794
 31
0.0
  0
LINE
  8
0
 62
     0
 10
10.0941
 20
96.2794
 30
0.0
 11
10.0941
 21
77.2322
 31
0.0
  0
LINE
  8
0
 62
     0
 10
10.0941
 20
77.2322
 30
0.0
 11
10.0928
 21
77.2322
 31
0.0
  0
LINE
  8
0
 62
     0
 10
10.0928
 20
77.2322
 30
0.0
 11
10.0928
 21
58.1794
 31
0.0
  0
LINE
  8
0
 62
     0
 10
10.0928
 20
58.1794
 30
0.0
 11
10.0941
 21
58.1794
 31
0.0
  0
LINE
  8
0
 62
     0
 10
10.0941
 20
58.1794
 30
0.0
 11
10.0941
 21
20.0794
 31
0.0
  0
LINE
  8
0
 62
     0
 10
10.0941
 20
20.0794
 30
0.0
 11
295.845
 21
20.0794
 31
0.0
  0
LINE
  8
0
 62
     0
 10
295.845
 20
20.0794
 30
0.0
 11
295.845
 21
115.332
 31
0.0
  0
LINE
  8
0
 62
     0
 10
295.845
 20
115.332
 30
0.0
 11
10.0928
 21
115.332
 31
0.0
  0
LINE
  8
0
 62
     0
 10
319.655
 20
58.1822
 30
0.0
 11
319.655
 21
39.1322
 31
0.0
  0
LINE
  8
0
 62
     0
 10
319.655
 20
39.1322
 30
0.0
 11
300.605
 21
39.1322
 31
0.0
  0
LINE
  8
0
 62
     0
 10
300.605
 20
39.1322
 30
0.0
 11
300.605
 21
20.0794
 31
0.0
  0
LINE
  8
0
 62
     0
 10
300.605
 20
20.0794
 30
0.0
 11
357.759
 21
20.0794
 31
0.0
  0
LINE
  8
0
 62
     0
 10
357.759
 20
20.0794
 30
0.0
 11
357.759
 21
39.1322
 31
0.0
  0
LINE
  8
0
 62
     0
 10
357.759
 20
39.1322
 30
0.0
 11
338.708
 21
39.1322
 31
0.0
  0
LINE
  8
0
 62
     0
 10
338.708
 20
39.1322
 30
0.0
 11
338.708
 21
58.1822
 31
0.0
  0
LINE
  8
0
 62
     0
 10
338.708
 20
58.1822
 30
0.0
 11
319.655
 21
58.1822
 31
0.0
  0
LINE
  8
0
 62
     0
 10
300.605
 20
115.332
 30
0.0
 11
357.759
 21
115.332
 31
0.0
  0
LINE
  8
0
 62
     0
 10
357.759
 20
115.332
 30
0.0
 11
357.759
 21
77.2294
 31
0.0
  0
LINE
  8
0
 62
     0
 10
357.759
 20
77.2294
 30
0.0
 11
300.605
 21
77.2294
 31
0.0
  0
LINE
  8
0
 62
     0
 10
300.605
 20
77.2294
 30
0.0
 11
300.605
 21
115.332
 31
0.0
  0
LINE
  8
0
 62
     0
 10
10.0928
 20
143.907
 30
0.0
 11
29.1455
 21
143.907
 31
0.0
  0
LINE
  8
0
 62
     0
 10
29.1455
 20
143.907
 30
0.0
 11
29.1455
 21
124.854
 31
0.0
  0
LINE
  8
0
 62
     0
 10
29.1455
 20
124.854
 30
0.0
 11
10.0928
 21
124.854
 31
0.0
  0
LINE
  8
0
 62
     0
 10
10.0928
 20
124.854
 30
0.0
 11
10.0928
 21
143.907
 31
0.0
  0
LINE
  8
0
 62
     0
 10
48.194
 20
143.907
 30
0.0
 11
124.394
 21
143.907
 31
0.0
  0
LINE
  8
0
 62
     0
 10
124.394
 20
143.907
 30
0.0
 11
124.394
 21
124.854
 31
0.0
  0
LINE
  8
0
 62
     0
 10
124.394
 20
124.854
 30
0.0
 11
48.194
 21
124.854
 31
0.0
  0
LINE
  8
0
 62
     0
 10
48.194
 20
124.854
 30
0.0
 11
48.194
 21
143.907
 31
0.0
  0
LINE
  8
0
 62
     0
 10
133.918
 20
143.907
 30
0.0
 11
210.12
 21
143.907
 31
0.0
  0
LINE
  8
0
 62
     0
 10
210.12
 20
143.907
 30
0.0
 11
210.12
 21
124.854
 31
0.0
  0
LINE
  8
0
 62
     0
 10
210.12
 20
124.854
 30
0.0
 11
133.918
 21
124.854
 31
0.0
  0
LINE
  8
0
 62
     0
 10
133.918
 20
124.854
 30
0.0
 11
133.918
 21
143.907
 31
0.0
  0
LINE
  8
0
 62
     0
 10
219.644
 20
143.907
 30
0.0
 11
295.845
 21
143.907
 31
0.0
  0
LINE
  8
0
 62
     0
 10
295.845
 20
143.907
 30
0.0
 11
295.845
 21
124.854
 31
0.0
  0
LINE
  8
0
 62
     0
 10
295.845
 20
124.854
 30
0.0
 11
219.644
 21
124.854
 31
0.0
  0
LINE
  8
0
 62
     0
 10
219.644
 20
124.854
 30
0.0
 11
219.644
 21
143.907
 31
0.0
  0
LINE
  8
0
 62
     0
 10
300.605
 20
143.907
 30
0.0
 11
357.759
 21
143.907
 31
0.0
  0
LINE
  8
0
 62
     0
 10
357.759
 20
143.907
 30
0.0
 11
357.759
 21
124.854
 31
0.0
  0
LINE
  8
0
 62
     0
 10
357.759
 20
124.854
 30
0.0
 11
300.605
 21
124.854
 31
0.0
  0
LINE
  8
0
 62
     0
 10
300.605
 20
124.854
 30
0.0
 11
300.605
 21
143.907
 31
0.0
  0
LINE
  8
0
 62
     0
 10
123.698
 20
160.81
 30
0.0
 11
123.139
 21
160.525
 31
0.0
  0
LINE
  8
0
 62
     0
 10
123.139
 20
160.525
 30
0.0
 11
122.698
 21
160.081
 31
0.0
  0
LINE
  8
0
 62
     0
 10
122.698
 20
160.081
 30
0.0
 11
122.414
 21
159.524
 31
0.0
  0
LINE
  8
0
 62
     0
 10
122.414
 20
159.524
 30
0.0
 11
122.316
 21
158.906
 31
0.0
  0
LINE
  8
0
 62
     0
 10
122.316
 20
158.906
 30
0.0
 11
122.414
 21
158.287
 31
0.0
  0
LINE
  8
0
 62
     0
 10
122.414
 20
158.287
 30
0.0
 11
122.698
 21
157.73
 31
0.0
  0
LINE
  8
0
 62
     0
 10
122.698
 20
157.73
 30
0.0
 11
123.139
 21
157.288
 31
0.0
  0
LINE
  8
0
 62
     0
 10
123.139
 20
157.288
 30
0.0
 11
123.698
 21
157.004
 31
0.0
  0
LINE
  8
0
 62
     0
 10
123.698
 20
157.004
 30
0.0
 11
124.316
 21
156.906
 31
0.0
  0
LINE
  8
0
 62
     0
 10
124.316
 20
156.906
 30
0.0
 11
124.934
 21
157.004
 31
0.0
  0
LINE
  8
0
 62
     0
 10
124.934
 20
157.004
 30
0.0
 11
125.49
 21
157.288
 31
0.0
  0
LINE
  8
0
 62
     0
 10
125.49
 20
157.288
 30
0.0
 11
125.934
 21
157.73
 31
0.0
  0
LINE
  8
0
 62
     0
 10
125.934
 20
157.73
 30
0.0
 11
126.217
 21
158.287
 31
0.0
  0
LINE
  8
0
 62
     0
 10
126.217
 20
158.287
 30
0.0
 11
126.315
 21
158.906
 31
0.0
  0
LINE
  8
0
 62
     0
 10
126.315
 20
158.906
 30
0.0
 11
126.217
 21
159.524
 31
0.0
  0
LINE
  8
0
 62
     0
 10
126.217
 20
159.524
 30
0.0
 11
125.934
 21
160.081
 31
0.0
  0
LINE
  8
0
 62
     0
 10
125.934
 20
160.081
 30
0.0
 11
125.49
 21
160.525
 31
0.0
  0
LINE
  8
0
 62
     0
 10
125.49
 20
160.525
 30
0.0
 11
124.934
 21
160.81
 31
0.0
  0
LINE
  8
0
 62
     0
 10
124.934
 20
160.81
 30
0.0
 11
124.316
 21
160.905
 31
0.0
  0
LINE
  8
0
 62
     0
 10
124.316
 20
160.905
 30
0.0
 11
123.698
 21
160.81
 31
0.0
  0
LINE
  8
0
 62
     0
 10
242.919
 20
160.81
 30
0.0
 11
242.361
 21
160.525
 31
0.0
  0
LINE
  8
0
 62
     0
 10
242.361
 20
160.525
 30
0.0
 11
241.919
 21
160.081
 31
0.0
  0
LINE
  8
0
 62
     0
 10
241.919
 20
160.081
 30
0.0
 11
241.635
 21
159.524
 31
0.0
  0
LINE
  8
0
 62
     0
 10
241.635
 20
159.524
 30
0.0
 11
241.537
 21
158.906
 31
0.0
  0
LINE
  8
0
 62
     0
 10
241.537
 20
158.906
 30
0.0
 11
241.635
 21
158.287
 31
0.0
  0
LINE
  8
0
 62
     0
 10
241.635
 20
158.287
 30
0.0
 11
241.919
 21
157.73
 31
0.0
  0
LINE
  8
0
 62
     0
 10
241.919
 20
157.73
 30
0.0
 11
242.361
 21
157.288
 31
0.0
  0
LINE
  8
0
 62
     0
 10
242.361
 20
157.288
 30
0.0
 11
242.919
 21
157.004
 31
0.0
  0
LINE
  8
0
 62
     0
 10
242.919
 20
157.004
 30
0.0
 11
243.537
 21
156.906
 31
0.0
  0
LINE
  8
0
 62
     0
 10
243.537
 20
156.906
 30
0.0
 11
244.155
 21
157.004
 31
0.0
  0
LINE
  8
0
 62
     0
 10
244.155
 20
157.004
 30
0.0
 11
244.712
 21
157.288
 31
0.0
  0
LINE
  8
0
 62
     0
 10
244.712
 20
157.288
 30
0.0
 11
245.154
 21
157.73
 31
0.0
  0
LINE
  8
0
 62
     0
 10
245.154
 20
157.73
 30
0.0
 11
245.438
 21
158.287
 31
0.0
  0
LINE
  8
0
 62
     0
 10
245.438
 20
158.287
 30
0.0
 11
245.536
 21
158.906
 31
0.0
  0
LINE
  8
0
 62
     0
 10
245.536
 20
158.906
 30
0.0
 11
245.438
 21
159.524
 31
0.0
  0
LINE
  8
0
 62
     0
 10
245.438
 20
159.524
 30
0.0
 11
245.154
 21
160.081
 31
0.0
  0
LINE
  8
0
 62
     0
 10
245.154
 20
160.081
 30
0.0
 11
244.712
 21
160.525
 31
0.0
  0
LINE
  8
0
 62
     0
 10
244.712
 20
160.525
 30
0.0
 11
244.155
 21
160.81
 31
0.0
  0
LINE
  8
0
 62
     0
 10
244.155
 20
160.81
 30
0.0
 11
243.537
 21
160.905
 31
0.0
  0
LINE
  8
0
 62
     0
 10
243.537
 20
160.905
 30
0.0
 11
242.919
 21
160.81
 31
0.0
  0
LINE
  8
0
 62
     0
 10
362.141
 20
160.81
 30
0.0
 11
361.583
 21
160.525
 31
0.0
  0
LINE
  8
0
 62
     0
 10
361.583
 20
160.525
 30
0.0
 11
361.139
 21
160.081
 31
0.0
  0
LINE
  8
0
 62
     0
 10
361.139
 20
160.081
 30
0.0
 11
360.856
 21
159.524
 31
0.0
  0
LINE
  8
0
 62
     0
 10
360.856
 20
159.524
 30
0.0
 11
360.758
 21
158.906
 31
0.0
  0
LINE
  8
0
 62
     0
 10
360.758
 20
158.906
 30
0.0
 11
360.856
 21
158.287
 31
0.0
  0
LINE
  8
0
 62
     0
 10
360.856
 20
158.287
 30
0.0
 11
361.139
 21
157.73
 31
0.0
  0
LINE
  8
0
 62
     0
 10
361.139
 20
157.73
 30
0.0
 11
361.583
 21
157.288
 31
0.0
  0
LINE
  8
0
 62
     0
 10
361.583
 20
157.288
 30
0.0
 11
362.141
 21
157.004
 31
0.0
  0
LINE
  8
0
 62
     0
 10
362.141
 20
157.004
 30
0.0
 11
362.758
 21
156.906
 31
0.0
  0
LINE
  8
0
 62
     0
 10
362.758
 20
156.906
 30
0.0
 11
363.375
 21
157.004
 31
0.0
  0
LINE
  8
0
 62
     0
 10
363.375
 20
157.004
 30
0.0
 11
363.936
 21
157.288
 31
0.0
  0
LINE
  8
0
 62
     0
 10
363.936
 20
157.288
 30
0.0
 11
364.377
 21
157.73
 31
0.0
  0
LINE
  8
0
 62
     0
 10
364.377
 20
157.73
 30
0.0
 11
364.659
 21
158.287
 31
0.0
  0
LINE
  8
0
 62
     0
 10
364.659
 20
158.287
 30
0.0
 11
364.758
 21
158.906
 31
0.0
  0
LINE
  8
0
 62
     0
 10
364.758
 20
158.906
 30
0.0
 11
364.659
 21
159.524
 31
0.0
  0
LINE
  8
0
 62
     0
 10
364.659
 20
159.524
 30
0.0
 11
364.377
 21
160.081
 31
0.0
  0
LINE
  8
0
 62
     0
 10
364.377
 20
160.081
 30
0.0
 11
363.936
 21
160.525
 31
0.0
  0
LINE
  8
0
 62
     0
 10
363.936
 20
160.525
 30
0.0
 11
363.375
 21
160.81
 31
0.0
  0
LINE
  8
0
 62
     0
 10
363.375
 20
160.81
 30
0.0
 11
362.758
 21
160.905
 31
0.0
  0
LINE
  8
0
 62
     0
 10
362.758
 20
160.905
 30
0.0
 11
362.141
 21
160.81
 31
0.0
  0
LINE
  8
0
 62
     0
 10
4.47587
 20
160.81
 30
0.0
 11
3.91915
 21
160.525
 31
0.0
  0
LINE
  8
0
 62
     0
 10
3.91915
 20
160.525
 30
0.0
 11
3.47541
 21
160.081
 31
0.0
  0
LINE
  8
0
 62
     0
 10
3.47541
 20
160.081
 30
0.0
 11
3.19016
 21
159.524
 31
0.0
  0
LINE
  8
0
 62
     0
 10
3.19016
 20
159.524
 30
0.0
 11
3.0937
 21
158.906
 31
0.0
  0
LINE
  8
0
 62
     0
 10
3.0937
 20
158.906
 30
0.0
 11
3.19016
 21
158.287
 31
0.0
  0
LINE
  8
0
 62
     0
 10
3.19016
 20
158.287
 30
0.0
 11
3.47541
 21
157.73
 31
0.0
  0
LINE
  8
0
 62
     0
 10
3.47541
 20
157.73
 30
0.0
 11
3.91915
 21
157.288
 31
0.0
  0
LINE
  8
0
 62
     0
 10
3.91915
 20
157.288
 30
0.0
 11
4.47587
 21
157.004
 31
0.0
  0
LINE
  8
0
 62
     0
 10
4.47587
 20
157.004
 30
0.0
 11
5.09323
 21
156.906
 31
0.0
  0
LINE
  8
0
 62
     0
 10
5.09323
 20
156.906
 30
0.0
 11
5.71334
 21
157.004
 31
0.0
  0
LINE
  8
0
 62
     0
 10
5.71334
 20
157.004
 30
0.0
 11
6.27006
 21
157.288
 31
0.0
  0
LINE
  8
0
 62
     0
 10
6.27006
 20
157.288
 30
0.0
 11
6.71241
 21
157.73
 31
0.0
  0
LINE
  8
0
 62
     0
 10
6.71241
 20
157.73
 30
0.0
 11
6.99629
 21
158.287
 31
0.0
  0
LINE
  8
0
 62
     0
 10
6.99629
 20
158.287
 30
0.0
 11
7.09415
 21
158.906
 31
0.0
  0
LINE
  8
0
 62
     0
 10
7.09415
 20
158.906
 30
0.0
 11
6.99629
 21
159.524
 31
0.0
  0
LINE
  8
0
 62
     0
 10
6.99629
 20
159.524
 30
0.0
 11
6.71241
 21
160.081
 31
0.0
  0
LINE
  8
0
 62
     0
 10
6.71241
 20
160.081
 30
0.0
 11
6.27006
 21
160.525
 31
0.0
  0
LINE
  8
0
 62
     0
 10
6.27006
 20
160.525
 30
0.0
 11
5.71334
 21
160.81
 31
0.0
  0
LINE
  8
0
 62
     0
 10
5.71334
 20
160.81
 30
0.0
 11
5.09323
 21
160.905
 31
0.0
  0
LINE
  8
0
 62
     0
 10
5.09323
 20
160.905
 30
0.0
 11
4.47587
 21
160.81
 31
0.0
  0
ENDSEC
  0
EOF
