<?xml version="1.0"?>
<!-- Generated by SVGo -->
<svg width="377.664mm" height="173.827mm"
     viewBox="0.000 0.000 377.664 173.827"
     xmlns="http://www.w3.org/2000/svg" 
     xmlns:xlink="http://www.w3.org/1999/xlink">
<polygon points="367.664,5.001 368.056,5.016 368.446,5.062 368.831,5.139 369.209,5.245 369.577,5.381 369.934,5.545 370.276,5.737 370.603,5.955 370.911,6.198 371.200,6.465 371.466,6.753 371.709,7.062 371.927,7.388 372.119,7.731 372.283,8.087 372.419,8.455 372.526,8.833 372.602,9.218 372.649,9.608 372.664,10.001 372.664,163.827 372.649,164.219 372.602,164.609 372.526,164.994 372.419,165.372 372.283,165.740 372.119,166.096 371.927,166.439 371.709,166.765 371.466,167.074 371.200,167.362 370.911,167.629 370.603,167.872 370.276,168.090 369.934,168.282 369.577,168.446 369.209,168.582 368.831,168.688 368.446,168.765 368.056,168.811 367.664,168.827 10.001,168.827 9.608,168.811 9.218,168.765 8.833,168.688 8.455,168.582 8.087,168.446 7.731,168.282 7.388,168.090 7.062,167.872 6.753,167.629 6.465,167.362 6.198,167.074 5.955,166.765 5.737,166.439 5.545,166.096 5.381,165.740 5.245,165.372 5.139,164.994 5.062,164.609 5.016,164.219 5.000,163.827 5.001,10.001 5.016,9.608 5.062,9.218 5.139,8.833 5.245,8.455 5.381,8.087 5.545,7.731 5.737,7.388 5.955,7.062 6.198,6.753 6.465,6.465 6.753,6.198 7.062,5.955 7.388,5.737 7.731,5.545 8.087,5.381 8.455,5.245 8.833,5.139 9.218,5.062 9.608,5.016 10.001,5.000" style="fill:none;stroke-width:0.050000mm;stroke:black"/>
<polygon points="367.046,161.924 366.488,162.208 366.046,162.651 365.762,163.208 365.664,163.827 365.762,164.445 366.046,165.002 366.488,165.445 367.046,165.729 367.664,165.827 368.282,165.729 368.840,165.445 369.282,165.002 369.566,164.445 369.664,163.827 369.566,163.208 369.282,162.651 368.840,162.208 368.282,161.924 367.664,161.827" style="fill:none;stroke-width:0.050000mm;stroke:black"/>
<polygon points="247.825,161.924 247.267,162.208 246.825,162.651 246.541,163.208 246.443,163.827 246.541,164.445 246.825,165.002 247.267,165.445 247.825,165.729 248.443,165.827 249.061,165.729 249.618,165.445 250.061,165.002 250.345,164.445 250.443,163.827 250.345,163.208 250.061,162.651 249.618,162.208 249.061,161.924 248.443,161.827" style="fill:none;stroke-width:0.050000mm;stroke:black"/>
<polygon points="128.604,161.924 128.045,162.208 127.604,162.651 127.320,163.208 127.222,163.827 127.320,164.445 127.604,165.002 128.045,165.445 128.604,165.729 129.222,165.827 129.840,165.729 130.396,165.445 130.840,165.002 131.124,164.445 131.222,163.827 131.124,163.208 130.840,162.651 130.396,162.208 129.840,161.924 129.222,161.827" style="fill:none;stroke-width:0.050000mm;stroke:black"/>
<polygon points="9.382,161.924 8.825,162.208 8.382,162.651 8.097,163.208 8.000,163.827 8.097,164.445 8.382,165.002 8.825,165.445 9.382,165.729 10.000,165.827 10.619,165.729 11.176,165.445 11.619,165.002 11.903,164.445 12.000,163.827 11.903,163.208 11.619,162.651 11.176,162.208 10.619,161.924 10.000,161.827" style="fill:none;stroke-width:0.050000mm;stroke:black"/>
<polygon points="15.001,15.001 15.001,158.827 362.664,158.827 362.664,15.001" style="fill:none;stroke-width:0.050000mm;stroke:black"/>
<polygon points="128.604,8.097 128.045,8.382 127.604,8.825 127.320,9.382 127.222,10.001 127.320,10.619 127.604,11.176 128.045,11.619 128.604,11.903 129.222,12.001 129.840,11.903 130.396,11.619 130.840,11.176 131.124,10.619 131.222,10.001 131.124,9.382 130.840,8.825 130.396,8.382 129.840,8.097 129.222,8.001" style="fill:none;stroke-width:0.050000mm;stroke:black"/>
<polygon points="247.825,8.097 247.267,8.382 246.825,8.825 246.541,9.382 246.443,10.001 246.541,10.619 246.825,11.176 247.267,11.619 247.825,11.903 248.443,12.001 249.061,11.903 249.618,11.619 250.061,11.176 250.345,10.619 250.443,10.001 250.345,9.382 250.061,8.825 249.618,8.382 249.061,8.097 248.443,8.001" style="fill:none;stroke-width:0.050000mm;stroke:black"/>
<polygon points="367.046,8.097 366.488,8.382 366.046,8.825 365.762,9.382 365.664,10.001 365.762,10.619 366.046,11.176 366.488,11.619 367.046,11.903 367.664,12.001 368.282,11.903 368.840,11.619 369.282,11.176 369.566,10.619 369.664,10.001 369.566,9.382 369.282,8.825 368.840,8.382 368.282,8.097 367.664,8.001" style="fill:none;stroke-width:0.050000mm;stroke:black"/>
<polygon points="9.382,8.097 8.825,8.382 8.382,8.825 8.097,9.382 8.000,10.001 8.097,10.619 8.382,11.176 8.825,11.619 9.382,11.903 10.000,12.001 10.619,11.903 11.176,11.619 11.619,11.176 11.903,10.619 12.000,10.001 11.903,9.382 11.619,8.825 11.176,8.382 10.619,8.097 10.000,8.001" style="fill:none;stroke-width:0.050000mm;stroke:black"/>
</svg>
